<svg xmlns="http://www.w3.org/2000/svg" xmlns:xlink="http://www.w3.org/1999/xlink" width="500" zoomAndPan="magnify" viewBox="0 0 375 374.999991" height="500" preserveAspectRatio="xMidYMid meet" version="1.0"><defs><clipPath id="0b0cee2b9f"><path d="M 224 309 L 233 309 L 233 316.742188 L 224 316.742188 Z M 224 309 " clip-rule="nonzero"/></clipPath></defs><path fill="#4f39f6" d="M 8.371094 174.988281 C 5.226562 174.988281 2.644531 177.570312 2.644531 180.71875 L 2.644531 195.160156 C 2.644531 198.308594 5.226562 200.890625 8.371094 200.890625 C 11.519531 200.890625 14.101562 198.308594 14.101562 195.160156 L 14.101562 180.636719 C 14.101562 177.492188 11.519531 174.988281 8.371094 174.988281 Z M 8.371094 174.988281 " fill-opacity="1" fill-rule="nonzero"/><path fill="#4f39f6" d="M 35.96875 149.167969 C 32.820312 149.167969 30.238281 151.75 30.238281 154.898438 L 30.238281 220.980469 C 30.238281 224.128906 32.820312 226.710938 35.96875 226.710938 C 39.113281 226.710938 41.695312 224.128906 41.695312 220.980469 L 41.695312 154.898438 C 41.613281 151.75 39.113281 149.167969 35.96875 149.167969 Z M 35.96875 149.167969 " fill-opacity="1" fill-rule="nonzero"/><path fill="#4f39f6" d="M 63.480469 130.046875 C 60.335938 130.046875 57.753906 132.628906 57.753906 135.777344 L 57.753906 240.105469 C 57.753906 243.25 60.335938 245.832031 63.480469 245.832031 C 66.628906 245.832031 69.210938 243.25 69.210938 240.105469 L 69.210938 135.777344 C 69.210938 132.628906 66.628906 130.046875 63.480469 130.046875 Z M 63.480469 130.046875 " fill-opacity="1" fill-rule="nonzero"/><path fill="#4f39f6" d="M 90.996094 157.238281 C 87.847656 157.238281 85.265625 159.820312 85.265625 162.96875 L 85.265625 212.914062 C 85.265625 216.058594 87.847656 218.640625 90.996094 218.640625 C 94.144531 218.640625 96.726562 216.058594 96.726562 212.914062 L 96.726562 162.886719 C 96.726562 159.738281 94.144531 157.238281 90.996094 157.238281 Z M 90.996094 157.238281 " fill-opacity="1" fill-rule="nonzero"/><path fill="#4f39f6" d="M 118.671875 165.386719 C 115.523438 165.386719 112.941406 167.96875 112.941406 171.117188 L 112.941406 204.761719 C 112.941406 207.910156 115.523438 210.492188 118.671875 210.492188 C 121.820312 210.492188 124.402344 207.910156 124.402344 204.761719 L 124.402344 171.117188 C 124.320312 167.890625 121.820312 165.386719 118.671875 165.386719 Z M 118.671875 165.386719 " fill-opacity="1" fill-rule="nonzero"/><path fill="#4f39f6" d="M 146.1875 143.28125 C 143.039062 143.28125 140.457031 145.863281 140.457031 149.007812 L 140.457031 226.871094 C 140.457031 230.019531 143.039062 232.601562 146.1875 232.601562 C 149.332031 232.601562 151.914062 230.019531 151.914062 226.871094 L 151.914062 149.007812 C 151.914062 145.863281 149.332031 143.28125 146.1875 143.28125 Z M 146.1875 143.28125 " fill-opacity="1" fill-rule="nonzero"/><path fill="#4f39f6" d="M 173.699219 124.15625 C 170.554688 124.15625 167.972656 126.738281 167.972656 129.886719 L 167.972656 245.996094 C 167.972656 249.140625 170.554688 251.722656 173.699219 251.722656 C 176.847656 251.722656 179.429688 249.0625 179.429688 245.914062 L 179.429688 129.804688 C 179.429688 126.738281 176.847656 124.15625 173.699219 124.15625 Z M 173.699219 124.15625 " fill-opacity="1" fill-rule="nonzero"/><path fill="#4f39f6" d="M 201.296875 105.035156 C 198.148438 105.035156 195.566406 107.617188 195.566406 110.761719 L 195.566406 265.117188 C 195.566406 268.265625 198.148438 270.847656 201.296875 270.847656 C 204.441406 270.847656 207.023438 268.265625 207.023438 265.117188 L 207.023438 110.761719 C 206.945312 107.617188 204.441406 105.035156 201.296875 105.035156 Z M 201.296875 105.035156 " fill-opacity="1" fill-rule="nonzero"/><path fill="#4f39f6" d="M 228.8125 88.089844 C 225.664062 88.089844 223.082031 90.671875 223.082031 93.816406 L 223.082031 282.0625 C 223.082031 285.210938 225.664062 287.792969 228.8125 287.792969 C 231.957031 287.792969 234.539062 285.210938 234.539062 282.0625 L 234.539062 93.738281 C 234.460938 90.589844 231.957031 88.089844 228.8125 88.089844 Z M 228.8125 88.089844 " fill-opacity="1" fill-rule="nonzero"/><path fill="#4f39f6" d="M 256.488281 124.15625 C 253.339844 124.15625 250.757812 126.738281 250.757812 129.886719 L 250.757812 245.996094 C 250.757812 249.140625 253.339844 251.722656 256.488281 251.722656 C 259.632812 251.722656 262.214844 249.140625 262.214844 245.996094 L 262.214844 129.886719 C 262.136719 126.738281 259.632812 124.15625 256.488281 124.15625 Z M 256.488281 124.15625 " fill-opacity="1" fill-rule="nonzero"/><path fill="#4f39f6" d="M 284 157.238281 C 280.855469 157.238281 278.273438 159.820312 278.273438 162.96875 L 278.273438 212.914062 C 278.273438 216.058594 280.855469 218.640625 284 218.640625 C 287.148438 218.640625 289.730469 216.058594 289.730469 212.914062 L 289.730469 162.886719 C 289.648438 159.738281 287.148438 157.238281 284 157.238281 Z M 284 157.238281 " fill-opacity="1" fill-rule="nonzero"/><path fill="#4f39f6" d="M 311.515625 138.117188 C 308.367188 138.117188 305.785156 140.699219 305.785156 143.84375 L 305.785156 232.035156 C 305.785156 235.183594 308.367188 237.765625 311.515625 237.765625 C 314.664062 237.765625 317.246094 235.183594 317.246094 232.035156 L 317.246094 143.84375 C 317.246094 140.617188 314.664062 138.117188 311.515625 138.117188 Z M 311.515625 138.117188 " fill-opacity="1" fill-rule="nonzero"/><path fill="#4f39f6" d="M 339.03125 165.386719 C 335.882812 165.386719 333.300781 167.96875 333.300781 171.117188 L 333.300781 204.761719 C 333.300781 207.910156 335.882812 210.492188 339.03125 210.492188 C 342.175781 210.492188 344.757812 207.910156 344.757812 204.761719 L 344.757812 171.117188 C 344.757812 167.890625 342.175781 165.386719 339.03125 165.386719 Z M 339.03125 165.386719 " fill-opacity="1" fill-rule="nonzero"/><path fill="#4f39f6" d="M 366.625 174.988281 C 363.480469 174.988281 360.898438 177.570312 360.898438 180.71875 L 360.898438 195.160156 C 360.898438 198.308594 363.480469 200.890625 366.625 200.890625 C 369.773438 200.890625 372.355469 198.308594 372.355469 195.160156 L 372.355469 180.636719 C 372.273438 177.492188 369.691406 174.988281 366.625 174.988281 Z M 366.625 174.988281 " fill-opacity="1" fill-rule="nonzero"/><path fill="#7c309c" d="M 256.488281 118.507812 C 259.390625 118.507812 261.652344 116.167969 261.652344 113.34375 C 261.652344 110.441406 259.3125 108.179688 256.488281 108.179688 C 253.582031 108.179688 251.324219 110.519531 251.324219 113.34375 C 251.242188 116.167969 253.582031 118.507812 256.488281 118.507812 Z M 256.488281 118.507812 " fill-opacity="1" fill-rule="nonzero"/><path fill="#7c309c" d="M 256.488281 102.371094 C 258.746094 102.371094 260.519531 100.515625 260.519531 98.335938 C 260.519531 96.078125 258.664062 94.300781 256.488281 94.300781 C 254.308594 94.300781 252.453125 96.15625 252.453125 98.335938 C 252.371094 100.59375 254.226562 102.371094 256.488281 102.371094 Z M 256.488281 102.371094 " fill-opacity="1" fill-rule="nonzero"/><path fill="#7c309c" d="M 284 151.507812 C 286.90625 151.507812 289.164062 149.167969 289.164062 146.34375 C 289.164062 143.441406 286.824219 141.179688 284 141.179688 C 281.097656 141.179688 278.835938 143.523438 278.835938 146.34375 C 278.757812 149.167969 281.097656 151.507812 284 151.507812 Z M 284 151.507812 " fill-opacity="1" fill-rule="nonzero"/><path fill="#7c309c" d="M 284 135.453125 C 286.261719 135.453125 288.035156 133.597656 288.035156 131.417969 C 288.035156 129.160156 286.179688 127.382812 284 127.382812 C 281.742188 127.382812 279.96875 129.238281 279.96875 131.417969 C 279.886719 133.597656 281.742188 135.453125 284 135.453125 Z M 284 135.453125 " fill-opacity="1" fill-rule="nonzero"/><path fill="#7c309c" d="M 311.515625 132.386719 C 314.421875 132.386719 316.679688 130.046875 316.679688 127.222656 C 316.679688 124.316406 314.339844 122.058594 311.515625 122.058594 C 308.609375 122.058594 306.351562 124.398438 306.351562 127.222656 C 306.351562 130.046875 308.691406 132.386719 311.515625 132.386719 Z M 311.515625 132.386719 " fill-opacity="1" fill-rule="nonzero"/><path fill="#7c309c" d="M 311.515625 116.328125 C 313.773438 116.328125 315.550781 114.472656 315.550781 112.296875 C 315.550781 110.035156 313.695312 108.261719 311.515625 108.261719 C 309.257812 108.261719 307.480469 110.117188 307.480469 112.296875 C 307.480469 114.472656 309.257812 116.328125 311.515625 116.328125 Z M 311.515625 116.328125 " fill-opacity="1" fill-rule="nonzero"/><path fill="#7c309c" d="M 339.03125 159.660156 C 341.933594 159.660156 344.195312 157.320312 344.195312 154.496094 C 344.195312 151.589844 341.855469 149.332031 339.03125 149.332031 C 336.207031 149.332031 333.867188 151.671875 333.867188 154.496094 C 333.867188 157.320312 336.207031 159.660156 339.03125 159.660156 Z M 339.03125 159.660156 " fill-opacity="1" fill-rule="nonzero"/><path fill="#7c309c" d="M 339.03125 143.601562 C 341.289062 143.601562 343.066406 141.746094 343.066406 139.566406 C 343.066406 137.308594 341.207031 135.535156 339.03125 135.535156 C 336.851562 135.535156 334.996094 137.390625 334.996094 139.566406 C 334.996094 141.746094 336.769531 143.601562 339.03125 143.601562 Z M 339.03125 143.601562 " fill-opacity="1" fill-rule="nonzero"/><path fill="#7c309c" d="M 366.625 169.261719 C 369.53125 169.261719 371.789062 166.921875 371.789062 164.097656 C 371.789062 161.191406 369.449219 158.933594 366.625 158.933594 C 363.800781 158.933594 361.460938 161.273438 361.460938 164.097656 C 361.382812 167 363.722656 169.261719 366.625 169.261719 Z M 366.625 169.261719 " fill-opacity="1" fill-rule="nonzero"/><path fill="#7c309c" d="M 366.625 153.203125 C 368.886719 153.203125 370.660156 151.347656 370.660156 149.167969 C 370.660156 146.910156 368.804688 145.136719 366.625 145.136719 C 364.445312 145.136719 362.589844 146.992188 362.589844 149.167969 C 362.511719 151.429688 364.367188 153.203125 366.625 153.203125 Z M 366.625 153.203125 " fill-opacity="1" fill-rule="nonzero"/><path fill="#7c309c" d="M 228.8125 82.359375 C 231.714844 82.359375 233.976562 80.019531 233.976562 77.195312 C 233.976562 74.292969 231.636719 72.03125 228.8125 72.03125 C 225.90625 72.03125 223.648438 74.371094 223.648438 77.195312 C 223.648438 80.019531 225.90625 82.359375 228.8125 82.359375 Z M 228.8125 82.359375 " fill-opacity="1" fill-rule="nonzero"/><path fill="#7c309c" d="M 228.8125 66.304688 C 231.070312 66.304688 232.84375 64.449219 232.84375 62.269531 C 232.84375 60.007812 230.988281 58.234375 228.8125 58.234375 C 226.550781 58.234375 224.777344 60.089844 224.777344 62.269531 C 224.695312 64.449219 226.550781 66.304688 228.8125 66.304688 Z M 228.8125 66.304688 " fill-opacity="1" fill-rule="nonzero"/><path fill="#7c309c" d="M 201.296875 99.386719 C 204.199219 99.386719 206.460938 97.046875 206.460938 94.222656 C 206.460938 91.316406 204.121094 89.058594 201.296875 89.058594 C 198.390625 89.058594 196.132812 91.398438 196.132812 94.222656 C 196.050781 97.046875 198.390625 99.386719 201.296875 99.386719 Z M 201.296875 99.386719 " fill-opacity="1" fill-rule="nonzero"/><path fill="#7c309c" d="M 201.296875 83.246094 C 203.554688 83.246094 205.332031 81.390625 205.332031 79.214844 C 205.332031 76.953125 203.476562 75.179688 201.296875 75.179688 C 199.035156 75.179688 197.261719 77.035156 197.261719 79.214844 C 197.179688 81.472656 199.035156 83.246094 201.296875 83.246094 Z M 201.296875 83.246094 " fill-opacity="1" fill-rule="nonzero"/><path fill="#7c309c" d="M 173.699219 118.507812 C 176.605469 118.507812 178.863281 116.167969 178.863281 113.34375 C 178.863281 110.441406 176.523438 108.179688 173.699219 108.179688 C 170.796875 108.179688 168.535156 110.519531 168.535156 113.34375 C 168.535156 116.167969 170.878906 118.507812 173.699219 118.507812 Z M 173.699219 118.507812 " fill-opacity="1" fill-rule="nonzero"/><path fill="#7c309c" d="M 173.699219 102.371094 C 175.960938 102.371094 177.734375 100.515625 177.734375 98.335938 C 177.734375 96.078125 175.878906 94.300781 173.699219 94.300781 C 171.523438 94.300781 169.667969 96.15625 169.667969 98.335938 C 169.667969 100.59375 171.523438 102.371094 173.699219 102.371094 Z M 173.699219 102.371094 " fill-opacity="1" fill-rule="nonzero"/><path fill="#7c309c" d="M 146.1875 137.632812 C 149.089844 137.632812 151.351562 135.292969 151.351562 132.46875 C 151.351562 129.5625 149.011719 127.304688 146.1875 127.304688 C 143.28125 127.304688 141.023438 129.644531 141.023438 132.46875 C 141.023438 135.292969 143.363281 137.632812 146.1875 137.632812 Z M 146.1875 137.632812 " fill-opacity="1" fill-rule="nonzero"/><path fill="#7c309c" d="M 146.1875 121.492188 C 148.445312 121.492188 150.222656 119.636719 150.222656 117.460938 C 150.222656 115.199219 148.363281 113.425781 146.1875 113.425781 C 143.925781 113.425781 142.152344 115.28125 142.152344 117.460938 C 142.152344 119.71875 143.925781 121.492188 146.1875 121.492188 Z M 146.1875 121.492188 " fill-opacity="1" fill-rule="nonzero"/><path fill="#7c309c" d="M 118.671875 159.660156 C 121.578125 159.660156 123.835938 157.320312 123.835938 154.496094 C 123.835938 151.589844 121.496094 149.332031 118.671875 149.332031 C 115.765625 149.332031 113.507812 151.671875 113.507812 154.496094 C 113.507812 157.320312 115.765625 159.660156 118.671875 159.660156 Z M 118.671875 159.660156 " fill-opacity="1" fill-rule="nonzero"/><path fill="#7c309c" d="M 118.671875 143.601562 C 120.929688 143.601562 122.707031 141.746094 122.707031 139.566406 C 122.707031 137.308594 120.851562 135.535156 118.671875 135.535156 C 116.414062 135.535156 114.636719 137.390625 114.636719 139.566406 C 114.558594 141.746094 116.414062 143.601562 118.671875 143.601562 Z M 118.671875 143.601562 " fill-opacity="1" fill-rule="nonzero"/><path fill="#7c309c" d="M 91.15625 151.507812 C 94.0625 151.507812 96.320312 149.167969 96.320312 146.34375 C 96.320312 143.441406 93.980469 141.179688 91.15625 141.179688 C 88.253906 141.179688 85.992188 143.523438 85.992188 146.34375 C 85.914062 149.167969 88.253906 151.507812 91.15625 151.507812 Z M 91.15625 151.507812 " fill-opacity="1" fill-rule="nonzero"/><path fill="#7c309c" d="M 91.15625 135.453125 C 93.417969 135.453125 95.191406 133.597656 95.191406 131.417969 C 95.191406 129.160156 93.335938 127.382812 91.15625 127.382812 C 88.898438 127.382812 87.125 129.238281 87.125 131.417969 C 87.042969 133.597656 88.898438 135.453125 91.15625 135.453125 Z M 91.15625 135.453125 " fill-opacity="1" fill-rule="nonzero"/><path fill="#7c309c" d="M 63.5625 124.398438 C 66.46875 124.398438 68.726562 122.058594 68.726562 119.234375 C 68.726562 116.328125 66.386719 114.070312 63.5625 114.070312 C 60.65625 114.070312 58.398438 116.410156 58.398438 119.234375 C 58.398438 122.058594 60.738281 124.398438 63.5625 124.398438 Z M 63.5625 124.398438 " fill-opacity="1" fill-rule="nonzero"/><path fill="#7c309c" d="M 63.5625 108.261719 C 65.820312 108.261719 67.597656 106.40625 67.597656 104.226562 C 67.597656 101.96875 65.742188 100.191406 63.5625 100.191406 C 61.304688 100.191406 59.527344 102.046875 59.527344 104.226562 C 59.527344 106.484375 61.382812 108.261719 63.5625 108.261719 Z M 63.5625 108.261719 " fill-opacity="1" fill-rule="nonzero"/><path fill="#7c309c" d="M 36.046875 143.523438 C 38.953125 143.523438 41.210938 141.179688 41.210938 138.359375 C 41.210938 135.453125 38.871094 133.195312 36.046875 133.195312 C 33.222656 133.195312 30.882812 135.535156 30.882812 138.359375 C 30.882812 141.179688 33.222656 143.523438 36.046875 143.523438 Z M 36.046875 143.523438 " fill-opacity="1" fill-rule="nonzero"/><path fill="#7c309c" d="M 36.046875 127.382812 C 38.308594 127.382812 40.082031 125.527344 40.082031 123.347656 C 40.082031 121.089844 38.226562 119.316406 36.046875 119.316406 C 33.867188 119.316406 32.011719 121.171875 32.011719 123.347656 C 32.011719 125.609375 33.789062 127.382812 36.046875 127.382812 Z M 36.046875 127.382812 " fill-opacity="1" fill-rule="nonzero"/><path fill="#7c309c" d="M 8.53125 169.261719 C 11.4375 169.261719 13.695312 166.921875 13.695312 164.097656 C 13.695312 161.191406 11.355469 158.933594 8.53125 158.933594 C 5.710938 158.933594 3.371094 161.273438 3.371094 164.097656 C 3.371094 167 5.628906 169.261719 8.53125 169.261719 Z M 8.53125 169.261719 " fill-opacity="1" fill-rule="nonzero"/><path fill="#7c309c" d="M 8.53125 153.203125 C 10.792969 153.203125 12.566406 151.347656 12.566406 149.167969 C 12.566406 146.910156 10.710938 145.136719 8.53125 145.136719 C 6.355469 145.136719 4.5 146.992188 4.5 149.167969 C 4.5 151.429688 6.273438 153.203125 8.53125 153.203125 Z M 8.53125 153.203125 " fill-opacity="1" fill-rule="nonzero"/><path fill="#7c309c" d="M 256.488281 257.292969 C 253.582031 257.292969 251.324219 259.632812 251.324219 262.457031 C 251.324219 265.359375 253.664062 267.621094 256.488281 267.621094 C 259.390625 267.621094 261.652344 265.28125 261.652344 262.457031 C 261.652344 259.632812 259.3125 257.292969 256.488281 257.292969 Z M 256.488281 257.292969 " fill-opacity="1" fill-rule="nonzero"/><path fill="#7c309c" d="M 256.488281 273.429688 C 254.226562 273.429688 252.453125 275.285156 252.453125 277.464844 C 252.453125 279.722656 254.308594 281.496094 256.488281 281.496094 C 258.664062 281.496094 260.519531 279.640625 260.519531 277.464844 C 260.519531 275.203125 258.664062 273.429688 256.488281 273.429688 Z M 256.488281 273.429688 " fill-opacity="1" fill-rule="nonzero"/><path fill="#7c309c" d="M 284 224.289062 C 281.097656 224.289062 278.835938 226.628906 278.835938 229.453125 C 278.835938 232.359375 281.175781 234.617188 284 234.617188 C 286.90625 234.617188 289.164062 232.277344 289.164062 229.453125 C 289.164062 226.628906 286.824219 224.289062 284 224.289062 Z M 284 224.289062 " fill-opacity="1" fill-rule="nonzero"/><path fill="#7c309c" d="M 284 240.347656 C 281.742188 240.347656 279.96875 242.203125 279.96875 244.382812 C 279.96875 246.640625 281.824219 248.414062 284 248.414062 C 286.261719 248.414062 288.035156 246.558594 288.035156 244.382812 C 288.035156 242.203125 286.261719 240.347656 284 240.347656 Z M 284 240.347656 " fill-opacity="1" fill-rule="nonzero"/><path fill="#7c309c" d="M 311.515625 243.414062 C 308.609375 243.414062 306.351562 245.753906 306.351562 248.578125 C 306.351562 251.480469 308.691406 253.742188 311.515625 253.742188 C 314.421875 253.742188 316.679688 251.402344 316.679688 248.578125 C 316.679688 245.753906 314.421875 243.414062 311.515625 243.414062 Z M 311.515625 243.414062 " fill-opacity="1" fill-rule="nonzero"/><path fill="#7c309c" d="M 311.515625 259.46875 C 309.257812 259.46875 307.480469 261.324219 307.480469 263.503906 C 307.480469 265.761719 309.335938 267.539062 311.515625 267.539062 C 313.773438 267.539062 315.550781 265.683594 315.550781 263.503906 C 315.632812 261.324219 313.773438 259.46875 311.515625 259.46875 Z M 311.515625 259.46875 " fill-opacity="1" fill-rule="nonzero"/><path fill="#7c309c" d="M 339.03125 216.140625 C 336.125 216.140625 333.867188 218.480469 333.867188 221.304688 C 333.867188 224.210938 336.207031 226.46875 339.03125 226.46875 C 341.855469 226.46875 344.195312 224.128906 344.195312 221.304688 C 344.273438 218.480469 341.933594 216.140625 339.03125 216.140625 Z M 339.03125 216.140625 " fill-opacity="1" fill-rule="nonzero"/><path fill="#7c309c" d="M 339.03125 232.199219 C 336.769531 232.199219 334.996094 234.054688 334.996094 236.230469 C 334.996094 238.492188 336.851562 240.265625 339.03125 240.265625 C 341.207031 240.265625 343.066406 238.410156 343.066406 236.230469 C 343.144531 234.054688 341.289062 232.199219 339.03125 232.199219 Z M 339.03125 232.199219 " fill-opacity="1" fill-rule="nonzero"/><path fill="#7c309c" d="M 366.625 206.539062 C 363.722656 206.539062 361.460938 208.878906 361.460938 211.703125 C 361.460938 214.609375 363.800781 216.867188 366.625 216.867188 C 369.449219 216.867188 371.789062 214.527344 371.789062 211.703125 C 371.789062 208.796875 369.449219 206.539062 366.625 206.539062 Z M 366.625 206.539062 " fill-opacity="1" fill-rule="nonzero"/><path fill="#7c309c" d="M 366.625 222.59375 C 364.367188 222.59375 362.589844 224.453125 362.589844 226.628906 C 362.589844 228.890625 364.445312 230.664062 366.625 230.664062 C 368.804688 230.664062 370.660156 228.808594 370.660156 226.628906 C 370.660156 224.371094 368.804688 222.59375 366.625 222.59375 Z M 366.625 222.59375 " fill-opacity="1" fill-rule="nonzero"/><path fill="#7c309c" d="M 228.8125 293.441406 C 225.90625 293.441406 223.648438 295.78125 223.648438 298.601562 C 223.648438 301.507812 225.988281 303.765625 228.8125 303.765625 C 231.714844 303.765625 233.976562 301.425781 233.976562 298.601562 C 233.976562 295.78125 231.636719 293.441406 228.8125 293.441406 Z M 228.8125 293.441406 " fill-opacity="1" fill-rule="nonzero"/><g clip-path="url(#0b0cee2b9f)"><path fill="#7c309c" d="M 228.8125 309.496094 C 226.550781 309.496094 224.777344 311.351562 224.777344 313.53125 C 224.777344 315.789062 226.632812 317.566406 228.8125 317.566406 C 231.070312 317.566406 232.84375 315.710938 232.84375 313.53125 C 232.84375 311.351562 231.070312 309.496094 228.8125 309.496094 Z M 228.8125 309.496094 " fill-opacity="1" fill-rule="nonzero"/></g><path fill="#7c309c" d="M 201.296875 276.414062 C 198.390625 276.414062 196.132812 278.753906 196.132812 281.578125 C 196.132812 284.484375 198.472656 286.742188 201.296875 286.742188 C 204.199219 286.742188 206.460938 284.402344 206.460938 281.578125 C 206.460938 278.753906 204.121094 276.414062 201.296875 276.414062 Z M 201.296875 276.414062 " fill-opacity="1" fill-rule="nonzero"/><path fill="#7c309c" d="M 201.296875 292.550781 C 199.035156 292.550781 197.261719 294.40625 197.261719 296.585938 C 197.261719 298.84375 199.117188 300.621094 201.296875 300.621094 C 203.554688 300.621094 205.332031 298.765625 205.332031 296.585938 C 205.332031 294.328125 203.554688 292.550781 201.296875 292.550781 Z M 201.296875 292.550781 " fill-opacity="1" fill-rule="nonzero"/><path fill="#7c309c" d="M 173.699219 257.292969 C 170.796875 257.292969 168.535156 259.632812 168.535156 262.457031 C 168.535156 265.359375 170.878906 267.621094 173.699219 267.621094 C 176.605469 267.621094 178.863281 265.28125 178.863281 262.457031 C 178.945312 259.632812 176.605469 257.292969 173.699219 257.292969 Z M 173.699219 257.292969 " fill-opacity="1" fill-rule="nonzero"/><path fill="#7c309c" d="M 173.699219 273.429688 C 171.441406 273.429688 169.667969 275.285156 169.667969 277.464844 C 169.667969 279.722656 171.523438 281.496094 173.699219 281.496094 C 175.878906 281.496094 177.734375 279.640625 177.734375 277.464844 C 177.816406 275.203125 175.960938 273.429688 173.699219 273.429688 Z M 173.699219 273.429688 " fill-opacity="1" fill-rule="nonzero"/><path fill="#7c309c" d="M 146.1875 238.167969 C 143.28125 238.167969 141.023438 240.507812 141.023438 243.332031 C 141.023438 246.238281 143.363281 248.496094 146.1875 248.496094 C 149.089844 248.496094 151.351562 246.15625 151.351562 243.332031 C 151.429688 240.507812 149.089844 238.167969 146.1875 238.167969 Z M 146.1875 238.167969 " fill-opacity="1" fill-rule="nonzero"/><path fill="#7c309c" d="M 146.1875 254.304688 C 143.925781 254.304688 142.152344 256.160156 142.152344 258.339844 C 142.152344 260.597656 144.007812 262.375 146.1875 262.375 C 148.445312 262.375 150.222656 260.519531 150.222656 258.339844 C 150.300781 256.082031 148.445312 254.304688 146.1875 254.304688 Z M 146.1875 254.304688 " fill-opacity="1" fill-rule="nonzero"/><path fill="#7c309c" d="M 118.671875 216.140625 C 115.765625 216.140625 113.507812 218.480469 113.507812 221.304688 C 113.507812 224.210938 115.847656 226.46875 118.671875 226.46875 C 121.578125 226.46875 123.835938 224.128906 123.835938 221.304688 C 123.835938 218.480469 121.496094 216.140625 118.671875 216.140625 Z M 118.671875 216.140625 " fill-opacity="1" fill-rule="nonzero"/><path fill="#7c309c" d="M 118.671875 232.199219 C 116.414062 232.199219 114.636719 234.054688 114.636719 236.230469 C 114.636719 238.492188 116.492188 240.265625 118.671875 240.265625 C 120.929688 240.265625 122.707031 238.410156 122.707031 236.230469 C 122.707031 234.054688 120.929688 232.199219 118.671875 232.199219 Z M 118.671875 232.199219 " fill-opacity="1" fill-rule="nonzero"/><path fill="#7c309c" d="M 91.15625 224.289062 C 88.253906 224.289062 85.992188 226.628906 85.992188 229.453125 C 85.992188 232.359375 88.332031 234.617188 91.15625 234.617188 C 94.0625 234.617188 96.320312 232.277344 96.320312 229.453125 C 96.320312 226.628906 93.980469 224.289062 91.15625 224.289062 Z M 91.15625 224.289062 " fill-opacity="1" fill-rule="nonzero"/><path fill="#7c309c" d="M 91.15625 240.347656 C 88.898438 240.347656 87.125 242.203125 87.125 244.382812 C 87.125 246.640625 88.980469 248.414062 91.15625 248.414062 C 93.417969 248.414062 95.191406 246.558594 95.191406 244.382812 C 95.191406 242.203125 93.417969 240.347656 91.15625 240.347656 Z M 91.15625 240.347656 " fill-opacity="1" fill-rule="nonzero"/><path fill="#7c309c" d="M 63.5625 251.402344 C 60.65625 251.402344 58.398438 253.742188 58.398438 256.566406 C 58.398438 259.46875 60.738281 261.730469 63.5625 261.730469 C 66.46875 261.730469 68.726562 259.390625 68.726562 256.566406 C 68.808594 253.742188 66.46875 251.402344 63.5625 251.402344 Z M 63.5625 251.402344 " fill-opacity="1" fill-rule="nonzero"/><path fill="#7c309c" d="M 63.5625 267.539062 C 61.304688 267.539062 59.527344 269.394531 59.527344 271.574219 C 59.527344 273.832031 61.382812 275.609375 63.5625 275.609375 C 65.820312 275.609375 67.597656 273.75 67.597656 271.574219 C 67.675781 269.3125 65.820312 267.539062 63.5625 267.539062 Z M 63.5625 267.539062 " fill-opacity="1" fill-rule="nonzero"/><path fill="#7c309c" d="M 36.046875 232.277344 C 33.144531 232.277344 30.882812 234.617188 30.882812 237.441406 C 30.882812 240.347656 33.222656 242.605469 36.046875 242.605469 C 38.871094 242.605469 41.210938 240.265625 41.210938 237.441406 C 41.292969 234.617188 38.953125 232.277344 36.046875 232.277344 Z M 36.046875 232.277344 " fill-opacity="1" fill-rule="nonzero"/><path fill="#7c309c" d="M 36.046875 248.414062 C 33.789062 248.414062 32.011719 250.273438 32.011719 252.449219 C 32.011719 254.710938 33.867188 256.484375 36.046875 256.484375 C 38.226562 256.484375 40.082031 254.628906 40.082031 252.449219 C 40.164062 250.191406 38.308594 248.414062 36.046875 248.414062 Z M 36.046875 248.414062 " fill-opacity="1" fill-rule="nonzero"/><path fill="#7c309c" d="M 8.53125 206.539062 C 5.628906 206.539062 3.371094 208.878906 3.371094 211.703125 C 3.371094 214.609375 5.710938 216.867188 8.53125 216.867188 C 11.355469 216.867188 13.695312 214.527344 13.695312 211.703125 C 13.695312 208.796875 11.4375 206.539062 8.53125 206.539062 Z M 8.53125 206.539062 " fill-opacity="1" fill-rule="nonzero"/><path fill="#7c309c" d="M 8.53125 222.59375 C 6.273438 222.59375 4.5 224.453125 4.5 226.628906 C 4.5 228.890625 6.355469 230.664062 8.53125 230.664062 C 10.710938 230.664062 12.566406 228.808594 12.566406 226.628906 C 12.566406 224.371094 10.792969 222.59375 8.53125 222.59375 Z M 8.53125 222.59375 " fill-opacity="1" fill-rule="nonzero"/></svg>