<svg xmlns="http://www.w3.org/2000/svg" xmlns:xlink="http://www.w3.org/1999/xlink" width="500" zoomAndPan="magnify" viewBox="0 0 375 374.999991" height="500" preserveAspectRatio="xMidYMid meet" version="1.0"><defs><g/><clipPath id="abe9d966fa"><path d="M 210 56.835938 L 216 56.835938 L 216 63 L 210 63 Z M 210 56.835938 " clip-rule="nonzero"/></clipPath><clipPath id="5d7897799a"><path d="M 210 213 L 216 213 L 216 218.085938 L 210 218.085938 Z M 210 213 " clip-rule="nonzero"/></clipPath></defs><path fill="#4f39f6" d="M 75.886719 129.730469 C 73.929688 129.730469 72.320312 131.339844 72.320312 133.300781 L 72.320312 142.300781 C 72.320312 144.261719 73.929688 145.871094 75.886719 145.871094 C 77.847656 145.871094 79.457031 144.261719 79.457031 142.300781 L 79.457031 133.25 C 79.457031 131.289062 77.847656 129.730469 75.886719 129.730469 Z M 75.886719 129.730469 " fill-opacity="1" fill-rule="nonzero"/><path fill="#4f39f6" d="M 93.082031 113.644531 C 91.121094 113.644531 89.511719 115.253906 89.511719 117.214844 L 89.511719 158.386719 C 89.511719 160.347656 91.121094 161.957031 93.082031 161.957031 C 95.042969 161.957031 96.652344 160.347656 96.652344 158.386719 L 96.652344 117.214844 C 96.601562 115.253906 95.042969 113.644531 93.082031 113.644531 Z M 93.082031 113.644531 " fill-opacity="1" fill-rule="nonzero"/><path fill="#4f39f6" d="M 110.226562 101.730469 C 108.265625 101.730469 106.65625 103.339844 106.65625 105.296875 L 106.65625 170.300781 C 106.65625 172.261719 108.265625 173.871094 110.226562 173.871094 C 112.1875 173.871094 113.796875 172.261719 113.796875 170.300781 L 113.796875 105.296875 C 113.796875 103.339844 112.1875 101.730469 110.226562 101.730469 Z M 110.226562 101.730469 " fill-opacity="1" fill-rule="nonzero"/><path fill="#4f39f6" d="M 127.367188 118.671875 C 125.410156 118.671875 123.800781 120.28125 123.800781 122.242188 L 123.800781 153.359375 C 123.800781 155.320312 125.410156 156.929688 127.367188 156.929688 C 129.328125 156.929688 130.9375 155.320312 130.9375 153.359375 L 130.9375 122.191406 C 130.9375 120.230469 129.328125 118.671875 127.367188 118.671875 Z M 127.367188 118.671875 " fill-opacity="1" fill-rule="nonzero"/><path fill="#4f39f6" d="M 144.613281 123.75 C 142.652344 123.75 141.042969 125.359375 141.042969 127.320312 L 141.042969 148.28125 C 141.042969 150.242188 142.652344 151.851562 144.613281 151.851562 C 146.574219 151.851562 148.183594 150.242188 148.183594 148.28125 L 148.183594 127.320312 C 148.132812 125.308594 146.574219 123.75 144.613281 123.75 Z M 144.613281 123.75 " fill-opacity="1" fill-rule="nonzero"/><path fill="#4f39f6" d="M 161.757812 109.972656 C 159.796875 109.972656 158.1875 111.582031 158.1875 113.542969 L 158.1875 162.058594 C 158.1875 164.019531 159.796875 165.628906 161.757812 165.628906 C 163.71875 165.628906 165.324219 164.019531 165.324219 162.058594 L 165.324219 113.542969 C 165.324219 111.582031 163.71875 109.972656 161.757812 109.972656 Z M 161.757812 109.972656 " fill-opacity="1" fill-rule="nonzero"/><path fill="#4f39f6" d="M 178.898438 98.058594 C 176.9375 98.058594 175.332031 99.667969 175.332031 101.628906 L 175.332031 173.972656 C 175.332031 175.933594 176.9375 177.542969 178.898438 177.542969 C 180.859375 177.542969 182.46875 175.882812 182.46875 173.921875 L 182.46875 101.578125 C 182.46875 99.667969 180.859375 98.058594 178.898438 98.058594 Z M 178.898438 98.058594 " fill-opacity="1" fill-rule="nonzero"/><path fill="#4f39f6" d="M 196.09375 86.144531 C 194.132812 86.144531 192.523438 87.753906 192.523438 89.714844 L 192.523438 185.886719 C 192.523438 187.847656 194.132812 189.457031 196.09375 189.457031 C 198.054688 189.457031 199.664062 187.847656 199.664062 185.886719 L 199.664062 89.714844 C 199.613281 87.753906 198.054688 86.144531 196.09375 86.144531 Z M 196.09375 86.144531 " fill-opacity="1" fill-rule="nonzero"/><path fill="#4f39f6" d="M 213.238281 75.585938 C 211.277344 75.585938 209.667969 77.195312 209.667969 79.15625 L 209.667969 196.445312 C 209.667969 198.40625 211.277344 200.015625 213.238281 200.015625 C 215.199219 200.015625 216.804688 198.40625 216.804688 196.445312 L 216.804688 79.105469 C 216.753906 77.144531 215.199219 75.585938 213.238281 75.585938 Z M 213.238281 75.585938 " fill-opacity="1" fill-rule="nonzero"/><path fill="#4f39f6" d="M 230.480469 98.058594 C 228.519531 98.058594 226.910156 99.667969 226.910156 101.628906 L 226.910156 173.972656 C 226.910156 175.933594 228.519531 177.542969 230.480469 177.542969 C 232.441406 177.542969 234.050781 175.933594 234.050781 173.972656 L 234.050781 101.628906 C 234 99.667969 232.441406 98.058594 230.480469 98.058594 Z M 230.480469 98.058594 " fill-opacity="1" fill-rule="nonzero"/><path fill="#4f39f6" d="M 247.625 118.671875 C 245.664062 118.671875 244.054688 120.28125 244.054688 122.242188 L 244.054688 153.359375 C 244.054688 155.320312 245.664062 156.929688 247.625 156.929688 C 249.585938 156.929688 251.195312 155.320312 251.195312 153.359375 L 251.195312 122.191406 C 251.144531 120.230469 249.585938 118.671875 247.625 118.671875 Z M 247.625 118.671875 " fill-opacity="1" fill-rule="nonzero"/><path fill="#4f39f6" d="M 264.765625 106.757812 C 262.808594 106.757812 261.199219 108.367188 261.199219 110.324219 L 261.199219 165.273438 C 261.199219 167.234375 262.808594 168.84375 264.765625 168.84375 C 266.726562 168.84375 268.335938 167.234375 268.335938 165.273438 L 268.335938 110.324219 C 268.335938 108.316406 266.726562 106.757812 264.765625 106.757812 Z M 264.765625 106.757812 " fill-opacity="1" fill-rule="nonzero"/><path fill="#4f39f6" d="M 281.910156 123.75 C 279.949219 123.75 278.339844 125.359375 278.339844 127.320312 L 278.339844 148.28125 C 278.339844 150.242188 279.949219 151.851562 281.910156 151.851562 C 283.871094 151.851562 285.480469 150.242188 285.480469 148.28125 L 285.480469 127.320312 C 285.480469 125.308594 283.871094 123.75 281.910156 123.75 Z M 281.910156 123.75 " fill-opacity="1" fill-rule="nonzero"/><path fill="#4f39f6" d="M 299.105469 129.730469 C 297.144531 129.730469 295.535156 131.339844 295.535156 133.300781 L 295.535156 142.300781 C 295.535156 144.261719 297.144531 145.871094 299.105469 145.871094 C 301.066406 145.871094 302.671875 144.261719 302.671875 142.300781 L 302.671875 133.25 C 302.625 131.289062 301.015625 129.730469 299.105469 129.730469 Z M 299.105469 129.730469 " fill-opacity="1" fill-rule="nonzero"/><path fill="#7c309c" d="M 230.480469 94.539062 C 232.289062 94.539062 233.699219 93.082031 233.699219 91.324219 C 233.699219 89.511719 232.238281 88.105469 230.480469 88.105469 C 228.671875 88.105469 227.261719 89.5625 227.261719 91.324219 C 227.210938 93.082031 228.671875 94.539062 230.480469 94.539062 Z M 230.480469 94.539062 " fill-opacity="1" fill-rule="nonzero"/><path fill="#7c309c" d="M 230.480469 84.484375 C 231.886719 84.484375 232.996094 83.328125 232.996094 81.972656 C 232.996094 80.5625 231.839844 79.457031 230.480469 79.457031 C 229.125 79.457031 227.96875 80.613281 227.96875 81.972656 C 227.917969 83.378906 229.074219 84.484375 230.480469 84.484375 Z M 230.480469 84.484375 " fill-opacity="1" fill-rule="nonzero"/><path fill="#7c309c" d="M 247.625 115.101562 C 249.433594 115.101562 250.839844 113.644531 250.839844 111.882812 C 250.839844 110.074219 249.382812 108.667969 247.625 108.667969 C 245.8125 108.667969 244.40625 110.125 244.40625 111.882812 C 244.355469 113.644531 245.8125 115.101562 247.625 115.101562 Z M 247.625 115.101562 " fill-opacity="1" fill-rule="nonzero"/><path fill="#7c309c" d="M 247.625 105.097656 C 249.03125 105.097656 250.136719 103.941406 250.136719 102.582031 C 250.136719 101.175781 248.980469 100.070312 247.625 100.070312 C 246.214844 100.070312 245.109375 101.226562 245.109375 102.582031 C 245.058594 103.941406 246.214844 105.097656 247.625 105.097656 Z M 247.625 105.097656 " fill-opacity="1" fill-rule="nonzero"/><path fill="#7c309c" d="M 264.765625 103.1875 C 266.578125 103.1875 267.984375 101.730469 267.984375 99.96875 C 267.984375 98.160156 266.527344 96.753906 264.765625 96.753906 C 262.957031 96.753906 261.550781 98.210938 261.550781 99.96875 C 261.550781 101.730469 263.007812 103.1875 264.765625 103.1875 Z M 264.765625 103.1875 " fill-opacity="1" fill-rule="nonzero"/><path fill="#7c309c" d="M 264.765625 93.183594 C 266.175781 93.183594 267.28125 92.027344 267.28125 90.667969 C 267.28125 89.261719 266.125 88.15625 264.765625 88.15625 C 263.359375 88.15625 262.253906 89.3125 262.253906 90.667969 C 262.253906 92.027344 263.359375 93.183594 264.765625 93.183594 Z M 264.765625 93.183594 " fill-opacity="1" fill-rule="nonzero"/><path fill="#7c309c" d="M 281.910156 120.179688 C 283.71875 120.179688 285.128906 118.722656 285.128906 116.960938 C 285.128906 115.152344 283.671875 113.746094 281.910156 113.746094 C 280.152344 113.746094 278.691406 115.203125 278.691406 116.960938 C 278.691406 118.722656 280.152344 120.179688 281.910156 120.179688 Z M 281.910156 120.179688 " fill-opacity="1" fill-rule="nonzero"/><path fill="#7c309c" d="M 281.910156 110.175781 C 283.316406 110.175781 284.425781 109.019531 284.425781 107.660156 C 284.425781 106.253906 283.269531 105.148438 281.910156 105.148438 C 280.554688 105.148438 279.398438 106.304688 279.398438 107.660156 C 279.398438 109.019531 280.503906 110.175781 281.910156 110.175781 Z M 281.910156 110.175781 " fill-opacity="1" fill-rule="nonzero"/><path fill="#7c309c" d="M 299.105469 126.164062 C 300.914062 126.164062 302.320312 124.703125 302.320312 122.945312 C 302.320312 121.136719 300.863281 119.726562 299.105469 119.726562 C 297.34375 119.726562 295.886719 121.183594 295.886719 122.945312 C 295.835938 124.753906 297.292969 126.164062 299.105469 126.164062 Z M 299.105469 126.164062 " fill-opacity="1" fill-rule="nonzero"/><path fill="#7c309c" d="M 299.105469 116.15625 C 300.511719 116.15625 301.617188 115 301.617188 113.644531 C 301.617188 112.238281 300.460938 111.128906 299.105469 111.128906 C 297.746094 111.128906 296.589844 112.285156 296.589844 113.644531 C 296.539062 115.050781 297.695312 116.15625 299.105469 116.15625 Z M 299.105469 116.15625 " fill-opacity="1" fill-rule="nonzero"/><path fill="#7c309c" d="M 213.238281 72.015625 C 215.046875 72.015625 216.453125 70.558594 216.453125 68.800781 C 216.453125 66.988281 214.996094 65.582031 213.238281 65.582031 C 211.425781 65.582031 210.019531 67.039062 210.019531 68.800781 C 210.019531 70.558594 211.425781 72.015625 213.238281 72.015625 Z M 213.238281 72.015625 " fill-opacity="1" fill-rule="nonzero"/><g clip-path="url(#abe9d966fa)"><path fill="#7c309c" d="M 213.238281 62.011719 C 214.644531 62.011719 215.75 60.855469 215.75 59.5 C 215.75 58.089844 214.59375 56.984375 213.238281 56.984375 C 211.828125 56.984375 210.722656 58.140625 210.722656 59.5 C 210.671875 60.855469 211.828125 62.011719 213.238281 62.011719 Z M 213.238281 62.011719 " fill-opacity="1" fill-rule="nonzero"/></g><path fill="#7c309c" d="M 196.09375 82.625 C 197.902344 82.625 199.3125 81.167969 199.3125 79.40625 C 199.3125 77.597656 197.851562 76.191406 196.09375 76.191406 C 194.285156 76.191406 192.875 77.648438 192.875 79.40625 C 192.824219 81.167969 194.285156 82.625 196.09375 82.625 Z M 196.09375 82.625 " fill-opacity="1" fill-rule="nonzero"/><path fill="#7c309c" d="M 196.09375 72.570312 C 197.5 72.570312 198.605469 71.414062 198.605469 70.058594 C 198.605469 68.648438 197.449219 67.542969 196.09375 67.542969 C 194.6875 67.542969 193.578125 68.699219 193.578125 70.058594 C 193.53125 71.464844 194.6875 72.570312 196.09375 72.570312 Z M 196.09375 72.570312 " fill-opacity="1" fill-rule="nonzero"/><path fill="#7c309c" d="M 178.898438 94.539062 C 180.710938 94.539062 182.117188 93.082031 182.117188 91.324219 C 182.117188 89.511719 180.660156 88.105469 178.898438 88.105469 C 177.089844 88.105469 175.683594 89.5625 175.683594 91.324219 C 175.683594 93.082031 177.140625 94.539062 178.898438 94.539062 Z M 178.898438 94.539062 " fill-opacity="1" fill-rule="nonzero"/><path fill="#7c309c" d="M 178.898438 84.484375 C 180.308594 84.484375 181.414062 83.328125 181.414062 81.972656 C 181.414062 80.5625 180.257812 79.457031 178.898438 79.457031 C 177.542969 79.457031 176.386719 80.613281 176.386719 81.972656 C 176.386719 83.378906 177.542969 84.484375 178.898438 84.484375 Z M 178.898438 84.484375 " fill-opacity="1" fill-rule="nonzero"/><path fill="#7c309c" d="M 161.757812 106.453125 C 163.566406 106.453125 164.972656 104.996094 164.972656 103.238281 C 164.972656 101.425781 163.515625 100.019531 161.757812 100.019531 C 159.945312 100.019531 158.539062 101.476562 158.539062 103.238281 C 158.539062 104.996094 159.996094 106.453125 161.757812 106.453125 Z M 161.757812 106.453125 " fill-opacity="1" fill-rule="nonzero"/><path fill="#7c309c" d="M 161.757812 96.398438 C 163.164062 96.398438 164.269531 95.242188 164.269531 93.886719 C 164.269531 92.480469 163.113281 91.371094 161.757812 91.371094 C 160.347656 91.371094 159.242188 92.527344 159.242188 93.886719 C 159.242188 95.292969 160.347656 96.398438 161.757812 96.398438 Z M 161.757812 96.398438 " fill-opacity="1" fill-rule="nonzero"/><path fill="#7c309c" d="M 144.613281 120.179688 C 146.421875 120.179688 147.832031 118.722656 147.832031 116.960938 C 147.832031 115.152344 146.371094 113.746094 144.613281 113.746094 C 142.804688 113.746094 141.394531 115.203125 141.394531 116.960938 C 141.394531 118.722656 142.804688 120.179688 144.613281 120.179688 Z M 144.613281 120.179688 " fill-opacity="1" fill-rule="nonzero"/><path fill="#7c309c" d="M 144.613281 110.175781 C 146.019531 110.175781 147.125 109.019531 147.125 107.660156 C 147.125 106.253906 145.96875 105.148438 144.613281 105.148438 C 143.207031 105.148438 142.097656 106.304688 142.097656 107.660156 C 142.050781 109.019531 143.207031 110.175781 144.613281 110.175781 Z M 144.613281 110.175781 " fill-opacity="1" fill-rule="nonzero"/><path fill="#7c309c" d="M 127.46875 115.101562 C 129.28125 115.101562 130.6875 113.644531 130.6875 111.882812 C 130.6875 110.074219 129.230469 108.667969 127.46875 108.667969 C 125.660156 108.667969 124.253906 110.125 124.253906 111.882812 C 124.203125 113.644531 125.660156 115.101562 127.46875 115.101562 Z M 127.46875 115.101562 " fill-opacity="1" fill-rule="nonzero"/><path fill="#7c309c" d="M 127.46875 105.097656 C 128.878906 105.097656 129.984375 103.941406 129.984375 102.582031 C 129.984375 101.175781 128.828125 100.070312 127.46875 100.070312 C 126.0625 100.070312 124.957031 101.226562 124.957031 102.582031 C 124.90625 103.941406 126.0625 105.097656 127.46875 105.097656 Z M 127.46875 105.097656 " fill-opacity="1" fill-rule="nonzero"/><path fill="#7c309c" d="M 110.277344 98.210938 C 112.085938 98.210938 113.492188 96.753906 113.492188 94.992188 C 113.492188 93.183594 112.035156 91.773438 110.277344 91.773438 C 108.464844 91.773438 107.058594 93.234375 107.058594 94.992188 C 107.058594 96.753906 108.515625 98.210938 110.277344 98.210938 Z M 110.277344 98.210938 " fill-opacity="1" fill-rule="nonzero"/><path fill="#7c309c" d="M 110.277344 88.15625 C 111.683594 88.15625 112.789062 87 112.789062 85.640625 C 112.789062 84.234375 111.632812 83.128906 110.277344 83.128906 C 108.867188 83.128906 107.761719 84.285156 107.761719 85.640625 C 107.761719 87.050781 108.917969 88.15625 110.277344 88.15625 Z M 110.277344 88.15625 " fill-opacity="1" fill-rule="nonzero"/><path fill="#7c309c" d="M 93.132812 110.125 C 94.941406 110.125 96.351562 108.667969 96.351562 106.90625 C 96.351562 105.097656 94.890625 103.691406 93.132812 103.691406 C 91.371094 103.691406 89.914062 105.148438 89.914062 106.90625 C 89.914062 108.667969 91.371094 110.125 93.132812 110.125 Z M 93.132812 110.125 " fill-opacity="1" fill-rule="nonzero"/><path fill="#7c309c" d="M 93.132812 100.070312 C 94.539062 100.070312 95.644531 98.914062 95.644531 97.554688 C 95.644531 96.148438 94.488281 95.042969 93.132812 95.042969 C 91.773438 95.042969 90.617188 96.199219 90.617188 97.554688 C 90.617188 98.964844 91.726562 100.070312 93.132812 100.070312 Z M 93.132812 100.070312 " fill-opacity="1" fill-rule="nonzero"/><path fill="#7c309c" d="M 75.988281 126.164062 C 77.800781 126.164062 79.207031 124.703125 79.207031 122.945312 C 79.207031 121.136719 77.75 119.726562 75.988281 119.726562 C 74.230469 119.726562 72.773438 121.183594 72.773438 122.945312 C 72.773438 124.753906 74.179688 126.164062 75.988281 126.164062 Z M 75.988281 126.164062 " fill-opacity="1" fill-rule="nonzero"/><path fill="#7c309c" d="M 75.988281 116.15625 C 77.398438 116.15625 78.503906 115 78.503906 113.644531 C 78.503906 112.238281 77.347656 111.128906 75.988281 111.128906 C 74.632812 111.128906 73.476562 112.285156 73.476562 113.644531 C 73.476562 115.050781 74.582031 116.15625 75.988281 116.15625 Z M 75.988281 116.15625 " fill-opacity="1" fill-rule="nonzero"/><path fill="#7c309c" d="M 230.480469 181.011719 C 228.671875 181.011719 227.261719 182.46875 227.261719 184.226562 C 227.261719 186.039062 228.722656 187.445312 230.480469 187.445312 C 232.289062 187.445312 233.699219 185.988281 233.699219 184.226562 C 233.699219 182.46875 232.238281 181.011719 230.480469 181.011719 Z M 230.480469 181.011719 " fill-opacity="1" fill-rule="nonzero"/><path fill="#7c309c" d="M 230.480469 191.066406 C 229.074219 191.066406 227.96875 192.222656 227.96875 193.578125 C 227.96875 194.988281 229.125 196.09375 230.480469 196.09375 C 231.839844 196.09375 232.996094 194.9375 232.996094 193.578125 C 232.996094 192.171875 231.839844 191.066406 230.480469 191.066406 Z M 230.480469 191.066406 " fill-opacity="1" fill-rule="nonzero"/><path fill="#7c309c" d="M 247.625 160.449219 C 245.8125 160.449219 244.40625 161.90625 244.40625 163.667969 C 244.40625 165.476562 245.863281 166.882812 247.625 166.882812 C 249.433594 166.882812 250.839844 165.425781 250.839844 163.667969 C 250.839844 161.90625 249.382812 160.449219 247.625 160.449219 Z M 247.625 160.449219 " fill-opacity="1" fill-rule="nonzero"/><path fill="#7c309c" d="M 247.625 170.453125 C 246.214844 170.453125 245.109375 171.609375 245.109375 172.96875 C 245.109375 174.375 246.265625 175.480469 247.625 175.480469 C 249.03125 175.480469 250.136719 174.324219 250.136719 172.96875 C 250.136719 171.609375 249.03125 170.453125 247.625 170.453125 Z M 247.625 170.453125 " fill-opacity="1" fill-rule="nonzero"/><path fill="#7c309c" d="M 264.765625 172.363281 C 262.957031 172.363281 261.550781 173.820312 261.550781 175.582031 C 261.550781 177.390625 263.007812 178.800781 264.765625 178.800781 C 266.578125 178.800781 267.984375 177.339844 267.984375 175.582031 C 267.984375 173.820312 266.578125 172.363281 264.765625 172.363281 Z M 264.765625 172.363281 " fill-opacity="1" fill-rule="nonzero"/><path fill="#7c309c" d="M 264.765625 182.367188 C 263.359375 182.367188 262.253906 183.523438 262.253906 184.882812 C 262.253906 186.289062 263.410156 187.394531 264.765625 187.394531 C 266.175781 187.394531 267.28125 186.238281 267.28125 184.882812 C 267.332031 183.523438 266.175781 182.367188 264.765625 182.367188 Z M 264.765625 182.367188 " fill-opacity="1" fill-rule="nonzero"/><path fill="#7c309c" d="M 281.910156 155.371094 C 280.101562 155.371094 278.691406 156.828125 278.691406 158.589844 C 278.691406 160.398438 280.152344 161.804688 281.910156 161.804688 C 283.671875 161.804688 285.128906 160.347656 285.128906 158.589844 C 285.179688 156.828125 283.71875 155.371094 281.910156 155.371094 Z M 281.910156 155.371094 " fill-opacity="1" fill-rule="nonzero"/><path fill="#7c309c" d="M 281.910156 165.375 C 280.503906 165.375 279.398438 166.53125 279.398438 167.890625 C 279.398438 169.296875 280.554688 170.402344 281.910156 170.402344 C 283.269531 170.402344 284.425781 169.246094 284.425781 167.890625 C 284.476562 166.53125 283.316406 165.375 281.910156 165.375 Z M 281.910156 165.375 " fill-opacity="1" fill-rule="nonzero"/><path fill="#7c309c" d="M 299.105469 149.390625 C 297.292969 149.390625 295.886719 150.847656 295.886719 152.605469 C 295.886719 154.417969 297.34375 155.824219 299.105469 155.824219 C 300.863281 155.824219 302.320312 154.367188 302.320312 152.605469 C 302.320312 150.796875 300.863281 149.390625 299.105469 149.390625 Z M 299.105469 149.390625 " fill-opacity="1" fill-rule="nonzero"/><path fill="#7c309c" d="M 299.105469 159.394531 C 297.695312 159.394531 296.589844 160.550781 296.589844 161.90625 C 296.589844 163.316406 297.746094 164.421875 299.105469 164.421875 C 300.460938 164.421875 301.617188 163.265625 301.617188 161.90625 C 301.617188 160.5 300.460938 159.394531 299.105469 159.394531 Z M 299.105469 159.394531 " fill-opacity="1" fill-rule="nonzero"/><path fill="#7c309c" d="M 213.238281 203.535156 C 211.425781 203.535156 210.019531 204.992188 210.019531 206.75 C 210.019531 208.5625 211.476562 209.96875 213.238281 209.96875 C 215.046875 209.96875 216.453125 208.511719 216.453125 206.75 C 216.453125 204.992188 214.996094 203.535156 213.238281 203.535156 Z M 213.238281 203.535156 " fill-opacity="1" fill-rule="nonzero"/><g clip-path="url(#5d7897799a)"><path fill="#7c309c" d="M 213.238281 213.539062 C 211.828125 213.539062 210.722656 214.695312 210.722656 216.050781 C 210.722656 217.460938 211.878906 218.566406 213.238281 218.566406 C 214.644531 218.566406 215.75 217.410156 215.75 216.050781 C 215.75 214.695312 214.644531 213.539062 213.238281 213.539062 Z M 213.238281 213.539062 " fill-opacity="1" fill-rule="nonzero"/></g><path fill="#7c309c" d="M 196.09375 192.925781 C 194.285156 192.925781 192.875 194.382812 192.875 196.144531 C 192.875 197.953125 194.332031 199.359375 196.09375 199.359375 C 197.902344 199.359375 199.3125 197.902344 199.3125 196.144531 C 199.3125 194.382812 197.851562 192.925781 196.09375 192.925781 Z M 196.09375 192.925781 " fill-opacity="1" fill-rule="nonzero"/><path fill="#7c309c" d="M 196.09375 202.980469 C 194.6875 202.980469 193.578125 204.136719 193.578125 205.496094 C 193.578125 206.902344 194.734375 208.007812 196.09375 208.007812 C 197.5 208.007812 198.605469 206.851562 198.605469 205.496094 C 198.605469 204.085938 197.5 202.980469 196.09375 202.980469 Z M 196.09375 202.980469 " fill-opacity="1" fill-rule="nonzero"/><path fill="#7c309c" d="M 178.898438 181.011719 C 177.089844 181.011719 175.683594 182.46875 175.683594 184.226562 C 175.683594 186.039062 177.140625 187.445312 178.898438 187.445312 C 180.710938 187.445312 182.117188 185.988281 182.117188 184.226562 C 182.167969 182.46875 180.710938 181.011719 178.898438 181.011719 Z M 178.898438 181.011719 " fill-opacity="1" fill-rule="nonzero"/><path fill="#7c309c" d="M 178.898438 191.066406 C 177.492188 191.066406 176.386719 192.222656 176.386719 193.578125 C 176.386719 194.988281 177.542969 196.09375 178.898438 196.09375 C 180.257812 196.09375 181.414062 194.9375 181.414062 193.578125 C 181.464844 192.171875 180.308594 191.066406 178.898438 191.066406 Z M 178.898438 191.066406 " fill-opacity="1" fill-rule="nonzero"/><path fill="#7c309c" d="M 161.757812 169.097656 C 159.945312 169.097656 158.539062 170.554688 158.539062 172.3125 C 158.539062 174.125 159.996094 175.53125 161.757812 175.53125 C 163.566406 175.53125 164.972656 174.074219 164.972656 172.3125 C 165.023438 170.554688 163.566406 169.097656 161.757812 169.097656 Z M 161.757812 169.097656 " fill-opacity="1" fill-rule="nonzero"/><path fill="#7c309c" d="M 161.757812 179.152344 C 160.347656 179.152344 159.242188 180.308594 159.242188 181.664062 C 159.242188 183.070312 160.398438 184.179688 161.757812 184.179688 C 163.164062 184.179688 164.269531 183.023438 164.269531 181.664062 C 164.320312 180.257812 163.164062 179.152344 161.757812 179.152344 Z M 161.757812 179.152344 " fill-opacity="1" fill-rule="nonzero"/><path fill="#7c309c" d="M 144.613281 155.371094 C 142.804688 155.371094 141.394531 156.828125 141.394531 158.589844 C 141.394531 160.398438 142.851562 161.804688 144.613281 161.804688 C 146.421875 161.804688 147.832031 160.347656 147.832031 158.589844 C 147.832031 156.828125 146.371094 155.371094 144.613281 155.371094 Z M 144.613281 155.371094 " fill-opacity="1" fill-rule="nonzero"/><path fill="#7c309c" d="M 144.613281 165.375 C 143.207031 165.375 142.097656 166.53125 142.097656 167.890625 C 142.097656 169.296875 143.253906 170.402344 144.613281 170.402344 C 146.019531 170.402344 147.125 169.246094 147.125 167.890625 C 147.125 166.53125 146.019531 165.375 144.613281 165.375 Z M 144.613281 165.375 " fill-opacity="1" fill-rule="nonzero"/><path fill="#7c309c" d="M 127.46875 160.449219 C 125.660156 160.449219 124.253906 161.90625 124.253906 163.667969 C 124.253906 165.476562 125.710938 166.882812 127.46875 166.882812 C 129.28125 166.882812 130.6875 165.425781 130.6875 163.667969 C 130.6875 161.90625 129.230469 160.449219 127.46875 160.449219 Z M 127.46875 160.449219 " fill-opacity="1" fill-rule="nonzero"/><path fill="#7c309c" d="M 127.46875 170.453125 C 126.0625 170.453125 124.957031 171.609375 124.957031 172.96875 C 124.957031 174.375 126.113281 175.480469 127.46875 175.480469 C 128.878906 175.480469 129.984375 174.324219 129.984375 172.96875 C 129.984375 171.609375 128.878906 170.453125 127.46875 170.453125 Z M 127.46875 170.453125 " fill-opacity="1" fill-rule="nonzero"/><path fill="#7c309c" d="M 110.277344 177.339844 C 108.464844 177.339844 107.058594 178.800781 107.058594 180.558594 C 107.058594 182.367188 108.515625 183.777344 110.277344 183.777344 C 112.085938 183.777344 113.492188 182.316406 113.492188 180.558594 C 113.542969 178.800781 112.085938 177.339844 110.277344 177.339844 Z M 110.277344 177.339844 " fill-opacity="1" fill-rule="nonzero"/><path fill="#7c309c" d="M 110.277344 187.394531 C 108.867188 187.394531 107.761719 188.550781 107.761719 189.910156 C 107.761719 191.316406 108.917969 192.421875 110.277344 192.421875 C 111.683594 192.421875 112.789062 191.265625 112.789062 189.910156 C 112.839844 188.5 111.683594 187.394531 110.277344 187.394531 Z M 110.277344 187.394531 " fill-opacity="1" fill-rule="nonzero"/><path fill="#7c309c" d="M 93.132812 165.425781 C 91.324219 165.425781 89.914062 166.882812 89.914062 168.644531 C 89.914062 170.453125 91.371094 171.859375 93.132812 171.859375 C 94.890625 171.859375 96.351562 170.402344 96.351562 168.644531 C 96.398438 166.882812 94.941406 165.425781 93.132812 165.425781 Z M 93.132812 165.425781 " fill-opacity="1" fill-rule="nonzero"/><path fill="#7c309c" d="M 93.132812 175.480469 C 91.726562 175.480469 90.617188 176.636719 90.617188 177.996094 C 90.617188 179.402344 91.773438 180.507812 93.132812 180.507812 C 94.488281 180.507812 95.644531 179.351562 95.644531 177.996094 C 95.695312 176.585938 94.539062 175.480469 93.132812 175.480469 Z M 93.132812 175.480469 " fill-opacity="1" fill-rule="nonzero"/><path fill="#7c309c" d="M 75.988281 149.390625 C 74.179688 149.390625 72.773438 150.847656 72.773438 152.605469 C 72.773438 154.417969 74.230469 155.824219 75.988281 155.824219 C 77.75 155.824219 79.207031 154.367188 79.207031 152.605469 C 79.207031 150.796875 77.800781 149.390625 75.988281 149.390625 Z M 75.988281 149.390625 " fill-opacity="1" fill-rule="nonzero"/><path fill="#7c309c" d="M 75.988281 159.394531 C 74.582031 159.394531 73.476562 160.550781 73.476562 161.90625 C 73.476562 163.316406 74.632812 164.421875 75.988281 164.421875 C 77.347656 164.421875 78.503906 163.265625 78.503906 161.90625 C 78.503906 160.5 77.398438 159.394531 75.988281 159.394531 Z M 75.988281 159.394531 " fill-opacity="1" fill-rule="nonzero"/><g fill="#000000" fill-opacity="1"><g transform="translate(39.128295, 293.002788)"><g><path d="M 14.96875 -12.53125 L 7.71875 -14.25 C 5.71875 -14.726562 4.269531 -15.546875 3.375 -16.703125 C 2.488281 -17.859375 2.046875 -19.472656 2.046875 -21.546875 C 2.046875 -24.554688 2.910156 -26.773438 4.640625 -28.203125 C 6.378906 -29.640625 9.070312 -30.359375 12.71875 -30.359375 C 14.25 -30.359375 15.625 -30.285156 16.84375 -30.140625 C 18.070312 -29.992188 19.207031 -29.78125 20.25 -29.5 L 20.25 -25.828125 C 18.914062 -26.148438 17.644531 -26.375 16.4375 -26.5 C 15.226562 -26.625 13.972656 -26.6875 12.671875 -26.6875 C 10.222656 -26.6875 8.503906 -26.328125 7.515625 -25.609375 C 6.535156 -24.898438 6.046875 -23.640625 6.046875 -21.828125 C 6.046875 -20.679688 6.273438 -19.8125 6.734375 -19.21875 C 7.203125 -18.632812 7.957031 -18.21875 9 -17.96875 L 16.203125 -16.25 C 18.742188 -15.644531 20.4375 -14.796875 21.28125 -13.703125 C 22.125 -12.609375 22.546875 -10.914062 22.546875 -8.625 C 22.546875 -5.351562 21.691406 -3.035156 19.984375 -1.671875 C 18.285156 -0.304688 15.597656 0.375 11.921875 0.375 C 9.972656 0.375 8.101562 0.25 6.3125 0 C 4.519531 -0.25 3.097656 -0.582031 2.046875 -1 L 2.046875 -4.8125 C 3.546875 -4.363281 5.132812 -4.019531 6.8125 -3.78125 C 8.5 -3.550781 10.203125 -3.4375 11.921875 -3.4375 C 14.296875 -3.4375 15.957031 -3.785156 16.90625 -4.484375 C 17.863281 -5.179688 18.34375 -6.53125 18.34375 -8.53125 C 18.34375 -9.769531 18.113281 -10.664062 17.65625 -11.21875 C 17.195312 -11.78125 16.300781 -12.21875 14.96875 -12.53125 Z M 14.96875 -12.53125 "/></g></g></g><g fill="#000000" fill-opacity="1"><g transform="translate(67.338705, 293.002788)"><g><path d="M 28.78125 -15.015625 C 28.78125 -9.578125 27.738281 -5.648438 25.65625 -3.234375 C 23.582031 -0.828125 20.191406 0.375 15.484375 0.375 C 10.429688 0.375 6.941406 -0.742188 5.015625 -2.984375 C 3.097656 -5.222656 2.140625 -9.234375 2.140625 -15.015625 C 2.140625 -20.410156 3.1875 -24.316406 5.28125 -26.734375 C 7.382812 -29.148438 10.785156 -30.359375 15.484375 -30.359375 C 20.535156 -30.359375 24.015625 -29.238281 25.921875 -27 C 27.828125 -24.757812 28.78125 -20.765625 28.78125 -15.015625 Z M 7.671875 -6.390625 C 8.273438 -5.304688 9.164062 -4.539062 10.34375 -4.09375 C 11.519531 -3.65625 13.234375 -3.4375 15.484375 -3.4375 C 19.015625 -3.4375 21.429688 -4.285156 22.734375 -5.984375 C 24.035156 -7.679688 24.6875 -10.691406 24.6875 -15.015625 C 24.6875 -17.171875 24.570312 -18.941406 24.34375 -20.328125 C 24.125 -21.710938 23.773438 -22.832031 23.296875 -23.6875 C 22.703125 -24.769531 21.820312 -25.539062 20.65625 -26 C 19.5 -26.457031 17.773438 -26.6875 15.484375 -26.6875 C 11.929688 -26.6875 9.503906 -25.828125 8.203125 -24.109375 C 6.898438 -22.398438 6.25 -19.367188 6.25 -15.015625 C 6.25 -12.847656 6.359375 -11.070312 6.578125 -9.6875 C 6.796875 -8.3125 7.160156 -7.210938 7.671875 -6.390625 Z M 7.671875 -6.390625 "/></g></g></g><g fill="#000000" fill-opacity="1"><g transform="translate(102.458585, 293.002788)"><g><path d="M 22.96875 -11.921875 L 22.96875 -29.875 L 27.015625 -29.875 L 27.015625 -11.921875 C 27.015625 -7.722656 26.035156 -4.625 24.078125 -2.625 C 22.128906 -0.625 19.109375 0.375 15.015625 0.375 C 10.878906 0.375 7.863281 -0.597656 5.96875 -2.546875 C 4.082031 -4.503906 3.140625 -7.628906 3.140625 -11.921875 L 3.140625 -29.875 L 7.203125 -29.875 L 7.203125 -11.921875 C 7.203125 -8.773438 7.78125 -6.570312 8.9375 -5.3125 C 10.09375 -4.0625 12.117188 -3.4375 15.015625 -3.4375 C 17.929688 -3.4375 19.984375 -4.0625 21.171875 -5.3125 C 22.367188 -6.570312 22.96875 -8.773438 22.96875 -11.921875 Z M 22.96875 -11.921875 "/></g></g></g><g fill="#000000" fill-opacity="1"><g transform="translate(136.816028, 293.002788)"><g><path d="M 27.875 -29.875 L 27.875 0 L 23.78125 0 L 7.25 -23.25 L 7.25 0 L 3.4375 0 L 3.4375 -29.875 L 7.53125 -29.875 L 24.0625 -6.296875 L 24.0625 -29.875 Z M 27.875 -29.875 "/></g></g></g><g fill="#000000" fill-opacity="1"><g transform="translate(172.317115, 293.002788)"><g><path d="M 12.109375 0 L 3.4375 0 L 3.4375 -29.875 L 12.109375 -29.875 C 15.160156 -29.875 17.582031 -29.617188 19.375 -29.109375 C 21.164062 -28.609375 22.601562 -27.800781 23.6875 -26.6875 C 24.769531 -25.570312 25.554688 -24.066406 26.046875 -22.171875 C 26.535156 -20.285156 26.78125 -17.882812 26.78125 -14.96875 C 26.78125 -9.789062 25.617188 -6 23.296875 -3.59375 C 20.984375 -1.195312 17.253906 0 12.109375 0 Z M 20.640625 -23.78125 C 19.910156 -24.632812 18.890625 -25.253906 17.578125 -25.640625 C 16.273438 -26.023438 14.453125 -26.21875 12.109375 -26.21875 L 7.484375 -26.21875 L 7.484375 -3.8125 L 12.109375 -3.8125 C 16.046875 -3.8125 18.785156 -4.648438 20.328125 -6.328125 C 21.867188 -8.015625 22.640625 -10.894531 22.640625 -14.96875 C 22.640625 -17.21875 22.476562 -19.039062 22.15625 -20.4375 C 21.84375 -21.84375 21.335938 -22.957031 20.640625 -23.78125 Z M 20.640625 -23.78125 "/></g></g></g><g fill="#000000" fill-opacity="1"><g transform="translate(205.387977, 293.002788)"><g/></g></g><g fill="#000000" fill-opacity="1"><g transform="translate(217.730458, 293.002788)"><g><path d="M 27.875 -29.875 L 27.875 0 L 23.78125 0 L 7.25 -23.25 L 7.25 0 L 3.4375 0 L 3.4375 -29.875 L 7.53125 -29.875 L 24.0625 -6.296875 L 24.0625 -29.875 Z M 27.875 -29.875 "/></g></g></g><g fill="#000000" fill-opacity="1"><g transform="translate(253.231544, 293.002788)"><g><path d="M 23.25 -3.8125 L 23.25 0 L 3.4375 0 L 3.4375 -29.875 L 22.828125 -29.875 L 22.828125 -26.21875 L 7.484375 -26.21875 L 7.484375 -17.0625 L 21.0625 -17.0625 L 21.0625 -13.484375 L 7.484375 -13.484375 L 7.484375 -3.8125 Z M 23.25 -3.8125 "/></g></g></g><g fill="#000000" fill-opacity="1"><g transform="translate(282.347329, 293.002788)"><g><path d="M 14.96875 -12.53125 L 7.71875 -14.25 C 5.71875 -14.726562 4.269531 -15.546875 3.375 -16.703125 C 2.488281 -17.859375 2.046875 -19.472656 2.046875 -21.546875 C 2.046875 -24.554688 2.910156 -26.773438 4.640625 -28.203125 C 6.378906 -29.640625 9.070312 -30.359375 12.71875 -30.359375 C 14.25 -30.359375 15.625 -30.285156 16.84375 -30.140625 C 18.070312 -29.992188 19.207031 -29.78125 20.25 -29.5 L 20.25 -25.828125 C 18.914062 -26.148438 17.644531 -26.375 16.4375 -26.5 C 15.226562 -26.625 13.972656 -26.6875 12.671875 -26.6875 C 10.222656 -26.6875 8.503906 -26.328125 7.515625 -25.609375 C 6.535156 -24.898438 6.046875 -23.640625 6.046875 -21.828125 C 6.046875 -20.679688 6.273438 -19.8125 6.734375 -19.21875 C 7.203125 -18.632812 7.957031 -18.21875 9 -17.96875 L 16.203125 -16.25 C 18.742188 -15.644531 20.4375 -14.796875 21.28125 -13.703125 C 22.125 -12.609375 22.546875 -10.914062 22.546875 -8.625 C 22.546875 -5.351562 21.691406 -3.035156 19.984375 -1.671875 C 18.285156 -0.304688 15.597656 0.375 11.921875 0.375 C 9.972656 0.375 8.101562 0.25 6.3125 0 C 4.519531 -0.25 3.097656 -0.582031 2.046875 -1 L 2.046875 -4.8125 C 3.546875 -4.363281 5.132812 -4.019531 6.8125 -3.78125 C 8.5 -3.550781 10.203125 -3.4375 11.921875 -3.4375 C 14.296875 -3.4375 15.957031 -3.785156 16.90625 -4.484375 C 17.863281 -5.179688 18.34375 -6.53125 18.34375 -8.53125 C 18.34375 -9.769531 18.113281 -10.664062 17.65625 -11.21875 C 17.195312 -11.78125 16.300781 -12.21875 14.96875 -12.53125 Z M 14.96875 -12.53125 "/></g></g></g><g fill="#000000" fill-opacity="1"><g transform="translate(310.557729, 293.002788)"><g><path d="M 24.59375 -29.875 L 24.59375 -26.21875 L 14.671875 -26.21875 L 14.671875 0 L 10.625 0 L 10.625 -26.21875 L 0.71875 -26.21875 L 0.71875 -29.875 Z M 24.59375 -29.875 "/></g></g></g><g fill="#000000" fill-opacity="1"><g transform="translate(101.752165, 320.358641)"><g><path d="M 9.3125 -9.703125 L 5.6875 -9.703125 L 5.6875 0 L 3.765625 0 L 3.765625 -9.703125 L 0.140625 -9.703125 L 0.140625 -11.4375 L 9.3125 -11.4375 Z M 9.3125 -9.703125 "/></g></g></g><g fill="#000000" fill-opacity="1"><g transform="translate(114.609077, 320.358641)"><g><path d="M 11.234375 -11.4375 L 11.234375 -4.734375 C 11.234375 -3.242188 10.789062 -2.066406 9.90625 -1.203125 C 9.019531 -0.347656 7.800781 0.078125 6.25 0.078125 C 4.707031 0.078125 3.492188 -0.347656 2.609375 -1.203125 C 1.722656 -2.066406 1.28125 -3.242188 1.28125 -4.734375 L 1.28125 -11.4375 L 3.203125 -11.4375 L 3.203125 -4.734375 C 3.203125 -3.773438 3.476562 -3.019531 4.03125 -2.46875 C 4.582031 -1.925781 5.332031 -1.65625 6.28125 -1.65625 C 7.21875 -1.65625 7.953125 -1.925781 8.484375 -2.46875 C 9.023438 -3.007812 9.296875 -3.765625 9.296875 -4.734375 L 9.296875 -11.4375 Z M 11.234375 -11.4375 "/></g></g></g><g fill="#000000" fill-opacity="1"><g transform="translate(130.487616, 320.358641)"><g><path d="M 11.421875 0 L 9.53125 0 L 3.4375 -8.203125 L 3.4375 0 L 1.5 0 L 1.5 -11.4375 L 3.40625 -11.4375 L 9.53125 -3.21875 L 9.53125 -11.4375 L 11.421875 -11.4375 Z M 11.421875 0 "/></g></g></g><g fill="#000000" fill-opacity="1"><g transform="translate(146.823472, 320.358641)"><g><path d="M 9.671875 -9.703125 L 3.4375 -9.703125 L 3.4375 -6.625 L 9.015625 -6.625 L 9.015625 -4.890625 L 3.4375 -4.890625 L 3.4375 -1.734375 L 9.875 -1.734375 L 9.875 0 L 1.5 0 L 1.5 -11.4375 L 9.671875 -11.4375 Z M 9.671875 -9.703125 "/></g></g></g><g fill="#000000" fill-opacity="1"><g transform="translate(160.938035, 320.358641)"><g/></g></g><g fill="#000000" fill-opacity="1"><g transform="translate(168.552039, 320.358641)"><g><path d="M 3.4375 0 L 1.5 0 L 1.5 -11.4375 L 3.4375 -11.4375 Z M 3.4375 0 "/></g></g></g><g fill="#000000" fill-opacity="1"><g transform="translate(176.884689, 320.358641)"><g><path d="M 11.421875 0 L 9.53125 0 L 3.4375 -8.203125 L 3.4375 0 L 1.5 0 L 1.5 -11.4375 L 3.40625 -11.4375 L 9.53125 -3.21875 L 9.53125 -11.4375 L 11.421875 -11.4375 Z M 11.421875 0 "/></g></g></g><g fill="#000000" fill-opacity="1"><g transform="translate(193.22055, 320.358641)"><g><path d="M 9.3125 -9.703125 L 5.6875 -9.703125 L 5.6875 0 L 3.765625 0 L 3.765625 -9.703125 L 0.140625 -9.703125 L 0.140625 -11.4375 L 9.3125 -11.4375 Z M 9.3125 -9.703125 "/></g></g></g><g fill="#000000" fill-opacity="1"><g transform="translate(206.077464, 320.358641)"><g><path d="M 2.296875 -9.828125 C 3.460938 -10.929688 4.898438 -11.484375 6.609375 -11.484375 C 8.328125 -11.484375 9.769531 -10.929688 10.9375 -9.828125 C 12.101562 -8.722656 12.6875 -7.351562 12.6875 -5.71875 C 12.6875 -4.082031 12.101562 -2.707031 10.9375 -1.59375 C 9.769531 -0.476562 8.328125 0.078125 6.609375 0.078125 C 4.898438 0.078125 3.460938 -0.476562 2.296875 -1.59375 C 1.140625 -2.707031 0.5625 -4.082031 0.5625 -5.71875 C 0.5625 -7.351562 1.140625 -8.722656 2.296875 -9.828125 Z M 6.640625 -9.75 C 5.503906 -9.75 4.53125 -9.359375 3.71875 -8.578125 C 2.914062 -7.804688 2.515625 -6.851562 2.515625 -5.71875 C 2.515625 -4.582031 2.921875 -3.617188 3.734375 -2.828125 C 4.546875 -2.046875 5.507812 -1.65625 6.625 -1.65625 C 7.75 -1.65625 8.707031 -2.046875 9.5 -2.828125 C 10.300781 -3.617188 10.703125 -4.582031 10.703125 -5.71875 C 10.703125 -6.851562 10.300781 -7.804688 9.5 -8.578125 C 8.707031 -9.359375 7.753906 -9.75 6.640625 -9.75 Z M 6.640625 -9.75 "/></g></g></g><g fill="#000000" fill-opacity="1"><g transform="translate(222.707323, 320.358641)"><g/></g></g><g fill="#000000" fill-opacity="1"><g transform="translate(230.32132, 320.358641)"><g><path d="M 6.1875 -3.8125 L 6.1875 0 L 4.28125 0 L 4.28125 -3.75 L 0.015625 -11.4375 L 1.96875 -11.4375 L 5.234375 -5.875 L 8.4375 -11.4375 L 10.390625 -11.4375 Z M 6.1875 -3.8125 "/></g></g></g><g fill="#000000" fill-opacity="1"><g transform="translate(244.125555, 320.358641)"><g><path d="M 2.296875 -9.828125 C 3.460938 -10.929688 4.898438 -11.484375 6.609375 -11.484375 C 8.328125 -11.484375 9.769531 -10.929688 10.9375 -9.828125 C 12.101562 -8.722656 12.6875 -7.351562 12.6875 -5.71875 C 12.6875 -4.082031 12.101562 -2.707031 10.9375 -1.59375 C 9.769531 -0.476562 8.328125 0.078125 6.609375 0.078125 C 4.898438 0.078125 3.460938 -0.476562 2.296875 -1.59375 C 1.140625 -2.707031 0.5625 -4.082031 0.5625 -5.71875 C 0.5625 -7.351562 1.140625 -8.722656 2.296875 -9.828125 Z M 6.640625 -9.75 C 5.503906 -9.75 4.53125 -9.359375 3.71875 -8.578125 C 2.914062 -7.804688 2.515625 -6.851562 2.515625 -5.71875 C 2.515625 -4.582031 2.921875 -3.617188 3.734375 -2.828125 C 4.546875 -2.046875 5.507812 -1.65625 6.625 -1.65625 C 7.75 -1.65625 8.707031 -2.046875 9.5 -2.828125 C 10.300781 -3.617188 10.703125 -4.582031 10.703125 -5.71875 C 10.703125 -6.851562 10.300781 -7.804688 9.5 -8.578125 C 8.707031 -9.359375 7.753906 -9.75 6.640625 -9.75 Z M 6.640625 -9.75 "/></g></g></g><g fill="#000000" fill-opacity="1"><g transform="translate(260.755407, 320.358641)"><g><path d="M 11.234375 -11.4375 L 11.234375 -4.734375 C 11.234375 -3.242188 10.789062 -2.066406 9.90625 -1.203125 C 9.019531 -0.347656 7.800781 0.078125 6.25 0.078125 C 4.707031 0.078125 3.492188 -0.347656 2.609375 -1.203125 C 1.722656 -2.066406 1.28125 -3.242188 1.28125 -4.734375 L 1.28125 -11.4375 L 3.203125 -11.4375 L 3.203125 -4.734375 C 3.203125 -3.773438 3.476562 -3.019531 4.03125 -2.46875 C 4.582031 -1.925781 5.332031 -1.65625 6.28125 -1.65625 C 7.21875 -1.65625 7.953125 -1.925781 8.484375 -2.46875 C 9.023438 -3.007812 9.296875 -3.765625 9.296875 -4.734375 L 9.296875 -11.4375 Z M 11.234375 -11.4375 "/></g></g></g></svg>