<svg xmlns="http://www.w3.org/2000/svg" xmlns:xlink="http://www.w3.org/1999/xlink" width="100" zoomAndPan="magnify" viewBox="0 0 75 74.999997" height="100" preserveAspectRatio="xMidYMid meet" version="1.0"><defs><clipPath id="ccdb3a0590"><path d="M 1.535156 35 L 4 35 L 4 41 L 1.535156 41 Z M 1.535156 35 " clip-rule="nonzero"/></clipPath><clipPath id="a8ff6d6edf"><path d="M 71 35 L 73.535156 35 L 73.535156 41 L 71 41 Z M 71 35 " clip-rule="nonzero"/></clipPath><clipPath id="956734f85a"><path d="M 71 31 L 73.535156 31 L 73.535156 34 L 71 34 Z M 71 31 " clip-rule="nonzero"/></clipPath><clipPath id="8280ddb36f"><path d="M 44 12.457031 L 47 12.457031 L 47 15 L 44 15 Z M 44 12.457031 " clip-rule="nonzero"/></clipPath><clipPath id="4df7a6c211"><path d="M 1.535156 31 L 4 31 L 4 34 L 1.535156 34 Z M 1.535156 31 " clip-rule="nonzero"/></clipPath><clipPath id="1dfcc34349"><path d="M 71 41 L 73.535156 41 L 73.535156 44 L 71 44 Z M 71 41 " clip-rule="nonzero"/></clipPath><clipPath id="5fd6433616"><path d="M 44 61 L 47 61 L 47 62.707031 L 44 62.707031 Z M 44 61 " clip-rule="nonzero"/></clipPath><clipPath id="a4573b5a5d"><path d="M 1.535156 41 L 4 41 L 4 44 L 1.535156 44 Z M 1.535156 41 " clip-rule="nonzero"/></clipPath></defs><g clip-path="url(#ccdb3a0590)"><path fill="#ffffff" d="M 2.867188 35.078125 C 2.257812 35.078125 1.761719 35.578125 1.761719 36.183594 L 1.761719 38.976562 C 1.761719 39.585938 2.257812 40.085938 2.867188 40.085938 C 3.476562 40.085938 3.976562 39.585938 3.976562 38.976562 L 3.976562 36.167969 C 3.976562 35.5625 3.476562 35.078125 2.867188 35.078125 Z M 2.867188 35.078125 " fill-opacity="1" fill-rule="nonzero"/></g><path fill="#ffffff" d="M 8.203125 30.085938 C 7.59375 30.085938 7.09375 30.585938 7.09375 31.195312 L 7.09375 43.96875 C 7.09375 44.578125 7.59375 45.078125 8.203125 45.078125 C 8.8125 45.078125 9.308594 44.578125 9.308594 43.96875 L 9.308594 31.195312 C 9.292969 30.585938 8.8125 30.085938 8.203125 30.085938 Z M 8.203125 30.085938 " fill-opacity="1" fill-rule="nonzero"/><path fill="#ffffff" d="M 13.523438 26.390625 C 12.914062 26.390625 12.414062 26.886719 12.414062 27.496094 L 12.414062 47.667969 C 12.414062 48.273438 12.914062 48.773438 13.523438 48.773438 C 14.128906 48.773438 14.628906 48.273438 14.628906 47.667969 L 14.628906 27.496094 C 14.628906 26.886719 14.128906 26.390625 13.523438 26.390625 Z M 13.523438 26.390625 " fill-opacity="1" fill-rule="nonzero"/><path fill="#ffffff" d="M 18.839844 31.644531 C 18.234375 31.644531 17.734375 32.144531 17.734375 32.753906 L 17.734375 42.410156 C 17.734375 43.019531 18.234375 43.515625 18.839844 43.515625 C 19.449219 43.515625 19.949219 43.019531 19.949219 42.410156 L 19.949219 32.738281 C 19.949219 32.128906 19.449219 31.644531 18.839844 31.644531 Z M 18.839844 31.644531 " fill-opacity="1" fill-rule="nonzero"/><path fill="#ffffff" d="M 24.191406 33.222656 C 23.585938 33.222656 23.085938 33.71875 23.085938 34.328125 L 23.085938 40.832031 C 23.085938 41.441406 23.585938 41.941406 24.191406 41.941406 C 24.800781 41.941406 25.300781 41.441406 25.300781 40.832031 L 25.300781 34.328125 C 25.285156 33.703125 24.800781 33.222656 24.191406 33.222656 Z M 24.191406 33.222656 " fill-opacity="1" fill-rule="nonzero"/><path fill="#ffffff" d="M 29.511719 28.945312 C 28.902344 28.945312 28.402344 29.445312 28.402344 30.054688 L 28.402344 45.109375 C 28.402344 45.714844 28.902344 46.214844 29.511719 46.214844 C 30.121094 46.214844 30.621094 45.714844 30.621094 45.109375 L 30.621094 30.054688 C 30.621094 29.445312 30.121094 28.945312 29.511719 28.945312 Z M 29.511719 28.945312 " fill-opacity="1" fill-rule="nonzero"/><path fill="#ffffff" d="M 34.832031 25.25 C 34.222656 25.25 33.722656 25.75 33.722656 26.359375 L 33.722656 48.804688 C 33.722656 49.414062 34.222656 49.914062 34.832031 49.914062 C 35.441406 49.914062 35.9375 49.398438 35.9375 48.789062 L 35.9375 26.34375 C 35.9375 25.75 35.441406 25.25 34.832031 25.25 Z M 34.832031 25.25 " fill-opacity="1" fill-rule="nonzero"/><path fill="#ffffff" d="M 40.167969 21.554688 C 39.558594 21.554688 39.058594 22.050781 39.058594 22.660156 L 39.058594 52.503906 C 39.058594 53.109375 39.558594 53.609375 40.167969 53.609375 C 40.773438 53.609375 41.273438 53.109375 41.273438 52.503906 L 41.273438 22.660156 C 41.257812 22.050781 40.773438 21.554688 40.167969 21.554688 Z M 40.167969 21.554688 " fill-opacity="1" fill-rule="nonzero"/><path fill="#ffffff" d="M 45.484375 18.277344 C 44.878906 18.277344 44.378906 18.777344 44.378906 19.382812 L 44.378906 55.777344 C 44.378906 56.386719 44.878906 56.886719 45.484375 56.886719 C 46.09375 56.886719 46.59375 56.386719 46.59375 55.777344 L 46.59375 19.367188 C 46.578125 18.761719 46.09375 18.277344 45.484375 18.277344 Z M 45.484375 18.277344 " fill-opacity="1" fill-rule="nonzero"/><path fill="#ffffff" d="M 50.835938 25.25 C 50.226562 25.25 49.730469 25.75 49.730469 26.359375 L 49.730469 48.804688 C 49.730469 49.414062 50.226562 49.914062 50.835938 49.914062 C 51.445312 49.914062 51.945312 49.414062 51.945312 48.804688 L 51.945312 26.359375 C 51.929688 25.75 51.445312 25.25 50.835938 25.25 Z M 50.835938 25.25 " fill-opacity="1" fill-rule="nonzero"/><path fill="#ffffff" d="M 56.15625 31.644531 C 55.546875 31.644531 55.046875 32.144531 55.046875 32.753906 L 55.046875 42.410156 C 55.046875 43.019531 55.546875 43.515625 56.15625 43.515625 C 56.765625 43.515625 57.261719 43.019531 57.261719 42.410156 L 57.261719 32.738281 C 57.246094 32.128906 56.765625 31.644531 56.15625 31.644531 Z M 56.15625 31.644531 " fill-opacity="1" fill-rule="nonzero"/><path fill="#ffffff" d="M 61.476562 27.949219 C 60.867188 27.949219 60.367188 28.449219 60.367188 29.054688 L 60.367188 46.105469 C 60.367188 46.714844 60.867188 47.214844 61.476562 47.214844 C 62.082031 47.214844 62.582031 46.714844 62.582031 46.105469 L 62.582031 29.054688 C 62.582031 28.433594 62.082031 27.949219 61.476562 27.949219 Z M 61.476562 27.949219 " fill-opacity="1" fill-rule="nonzero"/><path fill="#ffffff" d="M 66.792969 33.222656 C 66.1875 33.222656 65.6875 33.71875 65.6875 34.328125 L 65.6875 40.832031 C 65.6875 41.441406 66.1875 41.941406 66.792969 41.941406 C 67.402344 41.941406 67.902344 41.441406 67.902344 40.832031 L 67.902344 34.328125 C 67.902344 33.703125 67.402344 33.222656 66.792969 33.222656 Z M 66.792969 33.222656 " fill-opacity="1" fill-rule="nonzero"/><g clip-path="url(#a8ff6d6edf)"><path fill="#ffffff" d="M 72.128906 35.078125 C 71.519531 35.078125 71.023438 35.578125 71.023438 36.183594 L 71.023438 38.976562 C 71.023438 39.585938 71.519531 40.085938 72.128906 40.085938 C 72.738281 40.085938 73.238281 39.585938 73.238281 38.976562 L 73.238281 36.167969 C 73.222656 35.5625 72.722656 35.078125 72.128906 35.078125 Z M 72.128906 35.078125 " fill-opacity="1" fill-rule="nonzero"/></g><path fill="#ffffff" d="M 50.835938 24.15625 C 51.398438 24.15625 51.835938 23.707031 51.835938 23.160156 C 51.835938 22.597656 51.382812 22.160156 50.835938 22.160156 C 50.273438 22.160156 49.835938 22.613281 49.835938 23.160156 C 49.820312 23.707031 50.273438 24.15625 50.835938 24.15625 Z M 50.835938 24.15625 " fill-opacity="1" fill-rule="nonzero"/><path fill="#ffffff" d="M 50.835938 21.039062 C 51.273438 21.039062 51.617188 20.679688 51.617188 20.257812 C 51.617188 19.820312 51.257812 19.476562 50.835938 19.476562 C 50.414062 19.476562 50.054688 19.835938 50.054688 20.257812 C 50.039062 20.695312 50.398438 21.039062 50.835938 21.039062 Z M 50.835938 21.039062 " fill-opacity="1" fill-rule="nonzero"/><path fill="#ffffff" d="M 56.15625 30.539062 C 56.71875 30.539062 57.152344 30.085938 57.152344 29.539062 C 57.152344 28.976562 56.703125 28.542969 56.15625 28.542969 C 55.59375 28.542969 55.15625 28.992188 55.15625 29.539062 C 55.140625 30.085938 55.59375 30.539062 56.15625 30.539062 Z M 56.15625 30.539062 " fill-opacity="1" fill-rule="nonzero"/><path fill="#ffffff" d="M 56.15625 27.433594 C 56.59375 27.433594 56.9375 27.074219 56.9375 26.652344 C 56.9375 26.21875 56.578125 25.875 56.15625 25.875 C 55.71875 25.875 55.375 26.234375 55.375 26.652344 C 55.359375 27.074219 55.71875 27.433594 56.15625 27.433594 Z M 56.15625 27.433594 " fill-opacity="1" fill-rule="nonzero"/><path fill="#ffffff" d="M 61.476562 26.839844 C 62.035156 26.839844 62.472656 26.390625 62.472656 25.84375 C 62.472656 25.28125 62.019531 24.84375 61.476562 24.84375 C 60.914062 24.84375 60.476562 25.296875 60.476562 25.84375 C 60.476562 26.390625 60.929688 26.839844 61.476562 26.839844 Z M 61.476562 26.839844 " fill-opacity="1" fill-rule="nonzero"/><path fill="#ffffff" d="M 61.476562 23.738281 C 61.910156 23.738281 62.253906 23.378906 62.253906 22.957031 C 62.253906 22.519531 61.894531 22.175781 61.476562 22.175781 C 61.039062 22.175781 60.695312 22.535156 60.695312 22.957031 C 60.695312 23.378906 61.039062 23.738281 61.476562 23.738281 Z M 61.476562 23.738281 " fill-opacity="1" fill-rule="nonzero"/><path fill="#ffffff" d="M 66.792969 32.113281 C 67.355469 32.113281 67.792969 31.660156 67.792969 31.117188 C 67.792969 30.554688 67.339844 30.117188 66.792969 30.117188 C 66.25 30.117188 65.796875 30.570312 65.796875 31.117188 C 65.796875 31.660156 66.25 32.113281 66.792969 32.113281 Z M 66.792969 32.113281 " fill-opacity="1" fill-rule="nonzero"/><path fill="#ffffff" d="M 66.792969 29.007812 C 67.230469 29.007812 67.574219 28.652344 67.574219 28.230469 C 67.574219 27.792969 67.214844 27.449219 66.792969 27.449219 C 66.375 27.449219 66.015625 27.808594 66.015625 28.230469 C 66.015625 28.652344 66.359375 29.007812 66.792969 29.007812 Z M 66.792969 29.007812 " fill-opacity="1" fill-rule="nonzero"/><g clip-path="url(#956734f85a)"><path fill="#ffffff" d="M 72.128906 33.96875 C 72.691406 33.96875 73.128906 33.519531 73.128906 32.972656 C 73.128906 32.410156 72.675781 31.972656 72.128906 31.972656 C 71.582031 31.972656 71.132812 32.425781 71.132812 32.972656 C 71.117188 33.535156 71.566406 33.96875 72.128906 33.96875 Z M 72.128906 33.96875 " fill-opacity="1" fill-rule="nonzero"/></g><path fill="#ffffff" d="M 72.128906 30.867188 C 72.566406 30.867188 72.910156 30.507812 72.910156 30.085938 C 72.910156 29.648438 72.550781 29.304688 72.128906 29.304688 C 71.707031 29.304688 71.347656 29.664062 71.347656 30.085938 C 71.332031 30.523438 71.691406 30.867188 72.128906 30.867188 Z M 72.128906 30.867188 " fill-opacity="1" fill-rule="nonzero"/><path fill="#ffffff" d="M 45.484375 17.167969 C 46.046875 17.167969 46.484375 16.71875 46.484375 16.171875 C 46.484375 15.609375 46.03125 15.171875 45.484375 15.171875 C 44.925781 15.171875 44.488281 15.625 44.488281 16.171875 C 44.488281 16.71875 44.925781 17.167969 45.484375 17.167969 Z M 45.484375 17.167969 " fill-opacity="1" fill-rule="nonzero"/><g clip-path="url(#8280ddb36f)"><path fill="#ffffff" d="M 45.484375 14.066406 C 45.921875 14.066406 46.265625 13.707031 46.265625 13.285156 C 46.265625 12.847656 45.90625 12.503906 45.484375 12.503906 C 45.050781 12.503906 44.707031 12.863281 44.707031 13.285156 C 44.691406 13.707031 45.050781 14.066406 45.484375 14.066406 Z M 45.484375 14.066406 " fill-opacity="1" fill-rule="nonzero"/></g><path fill="#ffffff" d="M 40.167969 20.460938 C 40.726562 20.460938 41.164062 20.007812 41.164062 19.460938 C 41.164062 18.902344 40.710938 18.464844 40.167969 18.464844 C 39.605469 18.464844 39.167969 18.917969 39.167969 19.460938 C 39.152344 20.007812 39.605469 20.460938 40.167969 20.460938 Z M 40.167969 20.460938 " fill-opacity="1" fill-rule="nonzero"/><path fill="#ffffff" d="M 40.167969 17.339844 C 40.601562 17.339844 40.945312 16.980469 40.945312 16.5625 C 40.945312 16.125 40.585938 15.78125 40.167969 15.78125 C 39.730469 15.78125 39.386719 16.140625 39.386719 16.5625 C 39.371094 16.996094 39.730469 17.339844 40.167969 17.339844 Z M 40.167969 17.339844 " fill-opacity="1" fill-rule="nonzero"/><path fill="#ffffff" d="M 34.832031 24.15625 C 35.394531 24.15625 35.828125 23.707031 35.828125 23.160156 C 35.828125 22.597656 35.378906 22.160156 34.832031 22.160156 C 34.269531 22.160156 33.832031 22.613281 33.832031 23.160156 C 33.832031 23.707031 34.285156 24.15625 34.832031 24.15625 Z M 34.832031 24.15625 " fill-opacity="1" fill-rule="nonzero"/><path fill="#ffffff" d="M 34.832031 21.039062 C 35.269531 21.039062 35.609375 20.679688 35.609375 20.257812 C 35.609375 19.820312 35.253906 19.476562 34.832031 19.476562 C 34.410156 19.476562 34.050781 19.835938 34.050781 20.257812 C 34.050781 20.695312 34.410156 21.039062 34.832031 21.039062 Z M 34.832031 21.039062 " fill-opacity="1" fill-rule="nonzero"/><path fill="#ffffff" d="M 29.511719 27.855469 C 30.074219 27.855469 30.511719 27.402344 30.511719 26.855469 C 30.511719 26.296875 30.058594 25.859375 29.511719 25.859375 C 28.949219 25.859375 28.511719 26.3125 28.511719 26.855469 C 28.511719 27.402344 28.964844 27.855469 29.511719 27.855469 Z M 29.511719 27.855469 " fill-opacity="1" fill-rule="nonzero"/><path fill="#ffffff" d="M 29.511719 24.734375 C 29.949219 24.734375 30.292969 24.375 30.292969 23.957031 C 30.292969 23.519531 29.933594 23.175781 29.511719 23.175781 C 29.074219 23.175781 28.730469 23.535156 28.730469 23.957031 C 28.730469 24.390625 29.074219 24.734375 29.511719 24.734375 Z M 29.511719 24.734375 " fill-opacity="1" fill-rule="nonzero"/><path fill="#ffffff" d="M 24.191406 32.113281 C 24.753906 32.113281 25.191406 31.660156 25.191406 31.117188 C 25.191406 30.554688 24.738281 30.117188 24.191406 30.117188 C 23.628906 30.117188 23.195312 30.570312 23.195312 31.117188 C 23.195312 31.660156 23.628906 32.113281 24.191406 32.113281 Z M 24.191406 32.113281 " fill-opacity="1" fill-rule="nonzero"/><path fill="#ffffff" d="M 24.191406 29.007812 C 24.628906 29.007812 24.972656 28.652344 24.972656 28.230469 C 24.972656 27.792969 24.613281 27.449219 24.191406 27.449219 C 23.753906 27.449219 23.414062 27.808594 23.414062 28.230469 C 23.398438 28.652344 23.753906 29.007812 24.191406 29.007812 Z M 24.191406 29.007812 " fill-opacity="1" fill-rule="nonzero"/><path fill="#ffffff" d="M 18.871094 30.539062 C 19.433594 30.539062 19.871094 30.085938 19.871094 29.539062 C 19.871094 28.976562 19.417969 28.542969 18.871094 28.542969 C 18.3125 28.542969 17.875 28.992188 17.875 29.539062 C 17.859375 30.085938 18.3125 30.539062 18.871094 30.539062 Z M 18.871094 30.539062 " fill-opacity="1" fill-rule="nonzero"/><path fill="#ffffff" d="M 18.871094 27.433594 C 19.308594 27.433594 19.652344 27.074219 19.652344 26.652344 C 19.652344 26.21875 19.292969 25.875 18.871094 25.875 C 18.4375 25.875 18.09375 26.234375 18.09375 26.652344 C 18.078125 27.074219 18.4375 27.433594 18.871094 27.433594 Z M 18.871094 27.433594 " fill-opacity="1" fill-rule="nonzero"/><path fill="#ffffff" d="M 13.539062 25.296875 C 14.097656 25.296875 14.535156 24.84375 14.535156 24.296875 C 14.535156 23.738281 14.082031 23.300781 13.539062 23.300781 C 12.976562 23.300781 12.539062 23.753906 12.539062 24.296875 C 12.539062 24.84375 12.992188 25.296875 13.539062 25.296875 Z M 13.539062 25.296875 " fill-opacity="1" fill-rule="nonzero"/><path fill="#ffffff" d="M 13.539062 22.175781 C 13.976562 22.175781 14.316406 21.816406 14.316406 21.398438 C 14.316406 20.960938 13.960938 20.617188 13.539062 20.617188 C 13.101562 20.617188 12.757812 20.976562 12.757812 21.398438 C 12.757812 21.832031 13.117188 22.175781 13.539062 22.175781 Z M 13.539062 22.175781 " fill-opacity="1" fill-rule="nonzero"/><path fill="#ffffff" d="M 8.21875 28.992188 C 8.78125 28.992188 9.21875 28.542969 9.21875 27.996094 C 9.21875 27.433594 8.765625 26.996094 8.21875 26.996094 C 7.671875 26.996094 7.21875 27.449219 7.21875 27.996094 C 7.21875 28.542969 7.671875 28.992188 8.21875 28.992188 Z M 8.21875 28.992188 " fill-opacity="1" fill-rule="nonzero"/><path fill="#ffffff" d="M 8.21875 25.875 C 8.65625 25.875 9 25.515625 9 25.09375 C 9 24.65625 8.640625 24.3125 8.21875 24.3125 C 7.796875 24.3125 7.4375 24.671875 7.4375 25.09375 C 7.4375 25.53125 7.78125 25.875 8.21875 25.875 Z M 8.21875 25.875 " fill-opacity="1" fill-rule="nonzero"/><g clip-path="url(#4df7a6c211)"><path fill="#ffffff" d="M 2.898438 33.96875 C 3.460938 33.96875 3.898438 33.519531 3.898438 32.972656 C 3.898438 32.410156 3.445312 31.972656 2.898438 31.972656 C 2.351562 31.972656 1.902344 32.425781 1.902344 32.972656 C 1.902344 33.535156 2.335938 33.96875 2.898438 33.96875 Z M 2.898438 33.96875 " fill-opacity="1" fill-rule="nonzero"/></g><path fill="#ffffff" d="M 2.898438 30.867188 C 3.335938 30.867188 3.679688 30.507812 3.679688 30.085938 C 3.679688 29.648438 3.320312 29.304688 2.898438 29.304688 C 2.476562 29.304688 2.121094 29.664062 2.121094 30.085938 C 2.121094 30.523438 2.460938 30.867188 2.898438 30.867188 Z M 2.898438 30.867188 " fill-opacity="1" fill-rule="nonzero"/><path fill="#ffffff" d="M 50.835938 50.988281 C 50.273438 50.988281 49.835938 51.441406 49.835938 51.988281 C 49.835938 52.550781 50.289062 52.984375 50.835938 52.984375 C 51.398438 52.984375 51.835938 52.535156 51.835938 51.988281 C 51.835938 51.441406 51.382812 50.988281 50.835938 50.988281 Z M 50.835938 50.988281 " fill-opacity="1" fill-rule="nonzero"/><path fill="#ffffff" d="M 50.835938 54.109375 C 50.398438 54.109375 50.054688 54.46875 50.054688 54.890625 C 50.054688 55.324219 50.414062 55.667969 50.835938 55.667969 C 51.257812 55.667969 51.617188 55.308594 51.617188 54.890625 C 51.617188 54.453125 51.257812 54.109375 50.835938 54.109375 Z M 50.835938 54.109375 " fill-opacity="1" fill-rule="nonzero"/><path fill="#ffffff" d="M 56.15625 44.609375 C 55.59375 44.609375 55.15625 45.0625 55.15625 45.605469 C 55.15625 46.167969 55.609375 46.605469 56.15625 46.605469 C 56.71875 46.605469 57.152344 46.152344 57.152344 45.605469 C 57.152344 45.0625 56.703125 44.609375 56.15625 44.609375 Z M 56.15625 44.609375 " fill-opacity="1" fill-rule="nonzero"/><path fill="#ffffff" d="M 56.15625 47.714844 C 55.71875 47.714844 55.375 48.070312 55.375 48.492188 C 55.375 48.929688 55.734375 49.273438 56.15625 49.273438 C 56.59375 49.273438 56.9375 48.914062 56.9375 48.492188 C 56.9375 48.070312 56.59375 47.714844 56.15625 47.714844 Z M 56.15625 47.714844 " fill-opacity="1" fill-rule="nonzero"/><path fill="#ffffff" d="M 61.476562 48.304688 C 60.914062 48.304688 60.476562 48.757812 60.476562 49.304688 C 60.476562 49.867188 60.929688 50.304688 61.476562 50.304688 C 62.035156 50.304688 62.472656 49.851562 62.472656 49.304688 C 62.472656 48.757812 62.035156 48.304688 61.476562 48.304688 Z M 61.476562 48.304688 " fill-opacity="1" fill-rule="nonzero"/><path fill="#ffffff" d="M 61.476562 51.410156 C 61.039062 51.410156 60.695312 51.769531 60.695312 52.191406 C 60.695312 52.628906 61.054688 52.96875 61.476562 52.96875 C 61.910156 52.96875 62.253906 52.613281 62.253906 52.191406 C 62.269531 51.769531 61.910156 51.410156 61.476562 51.410156 Z M 61.476562 51.410156 " fill-opacity="1" fill-rule="nonzero"/><path fill="#ffffff" d="M 66.792969 43.035156 C 66.234375 43.035156 65.796875 43.484375 65.796875 44.03125 C 65.796875 44.59375 66.25 45.03125 66.792969 45.03125 C 67.339844 45.03125 67.792969 44.578125 67.792969 44.03125 C 67.808594 43.484375 67.355469 43.035156 66.792969 43.035156 Z M 66.792969 43.035156 " fill-opacity="1" fill-rule="nonzero"/><path fill="#ffffff" d="M 66.792969 46.136719 C 66.359375 46.136719 66.015625 46.496094 66.015625 46.917969 C 66.015625 47.355469 66.375 47.699219 66.792969 47.699219 C 67.214844 47.699219 67.574219 47.339844 67.574219 46.917969 C 67.589844 46.496094 67.230469 46.136719 66.792969 46.136719 Z M 66.792969 46.136719 " fill-opacity="1" fill-rule="nonzero"/><g clip-path="url(#1dfcc34349)"><path fill="#ffffff" d="M 72.128906 41.175781 C 71.566406 41.175781 71.132812 41.628906 71.132812 42.175781 C 71.132812 42.738281 71.582031 43.175781 72.128906 43.175781 C 72.675781 43.175781 73.128906 42.722656 73.128906 42.175781 C 73.128906 41.613281 72.675781 41.175781 72.128906 41.175781 Z M 72.128906 41.175781 " fill-opacity="1" fill-rule="nonzero"/></g><path fill="#ffffff" d="M 72.128906 44.28125 C 71.691406 44.28125 71.347656 44.640625 71.347656 45.0625 C 71.347656 45.5 71.707031 45.839844 72.128906 45.839844 C 72.550781 45.839844 72.910156 45.484375 72.910156 45.0625 C 72.910156 44.625 72.550781 44.28125 72.128906 44.28125 Z M 72.128906 44.28125 " fill-opacity="1" fill-rule="nonzero"/><path fill="#ffffff" d="M 45.484375 57.976562 C 44.925781 57.976562 44.488281 58.429688 44.488281 58.976562 C 44.488281 59.539062 44.941406 59.972656 45.484375 59.972656 C 46.046875 59.972656 46.484375 59.523438 46.484375 58.976562 C 46.484375 58.429688 46.03125 57.976562 45.484375 57.976562 Z M 45.484375 57.976562 " fill-opacity="1" fill-rule="nonzero"/><g clip-path="url(#5fd6433616)"><path fill="#ffffff" d="M 45.484375 61.082031 C 45.050781 61.082031 44.707031 61.441406 44.707031 61.863281 C 44.707031 62.296875 45.0625 62.640625 45.484375 62.640625 C 45.921875 62.640625 46.265625 62.28125 46.265625 61.863281 C 46.265625 61.441406 45.921875 61.082031 45.484375 61.082031 Z M 45.484375 61.082031 " fill-opacity="1" fill-rule="nonzero"/></g><path fill="#ffffff" d="M 40.167969 54.6875 C 39.605469 54.6875 39.167969 55.136719 39.167969 55.683594 C 39.167969 56.246094 39.621094 56.683594 40.167969 56.683594 C 40.726562 56.683594 41.164062 56.230469 41.164062 55.683594 C 41.164062 55.136719 40.710938 54.6875 40.167969 54.6875 Z M 40.167969 54.6875 " fill-opacity="1" fill-rule="nonzero"/><path fill="#ffffff" d="M 40.167969 57.804688 C 39.730469 57.804688 39.386719 58.164062 39.386719 58.585938 C 39.386719 59.023438 39.746094 59.367188 40.167969 59.367188 C 40.601562 59.367188 40.945312 59.007812 40.945312 58.585938 C 40.945312 58.148438 40.601562 57.804688 40.167969 57.804688 Z M 40.167969 57.804688 " fill-opacity="1" fill-rule="nonzero"/><path fill="#ffffff" d="M 34.832031 50.988281 C 34.269531 50.988281 33.832031 51.441406 33.832031 51.988281 C 33.832031 52.550781 34.285156 52.984375 34.832031 52.984375 C 35.394531 52.984375 35.828125 52.535156 35.828125 51.988281 C 35.84375 51.441406 35.394531 50.988281 34.832031 50.988281 Z M 34.832031 50.988281 " fill-opacity="1" fill-rule="nonzero"/><path fill="#ffffff" d="M 34.832031 54.109375 C 34.394531 54.109375 34.050781 54.46875 34.050781 54.890625 C 34.050781 55.324219 34.410156 55.667969 34.832031 55.667969 C 35.253906 55.667969 35.609375 55.308594 35.609375 54.890625 C 35.625 54.453125 35.269531 54.109375 34.832031 54.109375 Z M 34.832031 54.109375 " fill-opacity="1" fill-rule="nonzero"/><path fill="#ffffff" d="M 29.511719 47.292969 C 28.949219 47.292969 28.511719 47.746094 28.511719 48.289062 C 28.511719 48.851562 28.964844 49.289062 29.511719 49.289062 C 30.074219 49.289062 30.511719 48.835938 30.511719 48.289062 C 30.527344 47.746094 30.074219 47.292969 29.511719 47.292969 Z M 29.511719 47.292969 " fill-opacity="1" fill-rule="nonzero"/><path fill="#ffffff" d="M 29.511719 50.410156 C 29.074219 50.410156 28.730469 50.769531 28.730469 51.191406 C 28.730469 51.628906 29.089844 51.972656 29.511719 51.972656 C 29.949219 51.972656 30.292969 51.613281 30.292969 51.191406 C 30.308594 50.753906 29.949219 50.410156 29.511719 50.410156 Z M 29.511719 50.410156 " fill-opacity="1" fill-rule="nonzero"/><path fill="#ffffff" d="M 24.191406 43.035156 C 23.628906 43.035156 23.195312 43.484375 23.195312 44.03125 C 23.195312 44.59375 23.644531 45.03125 24.191406 45.03125 C 24.753906 45.03125 25.191406 44.578125 25.191406 44.03125 C 25.191406 43.484375 24.738281 43.035156 24.191406 43.035156 Z M 24.191406 43.035156 " fill-opacity="1" fill-rule="nonzero"/><path fill="#ffffff" d="M 24.191406 46.136719 C 23.753906 46.136719 23.414062 46.496094 23.414062 46.917969 C 23.414062 47.355469 23.769531 47.699219 24.191406 47.699219 C 24.628906 47.699219 24.972656 47.339844 24.972656 46.917969 C 24.972656 46.496094 24.628906 46.136719 24.191406 46.136719 Z M 24.191406 46.136719 " fill-opacity="1" fill-rule="nonzero"/><path fill="#ffffff" d="M 18.871094 44.609375 C 18.3125 44.609375 17.875 45.0625 17.875 45.605469 C 17.875 46.167969 18.328125 46.605469 18.871094 46.605469 C 19.433594 46.605469 19.871094 46.152344 19.871094 45.605469 C 19.871094 45.0625 19.417969 44.609375 18.871094 44.609375 Z M 18.871094 44.609375 " fill-opacity="1" fill-rule="nonzero"/><path fill="#ffffff" d="M 18.871094 47.714844 C 18.4375 47.714844 18.09375 48.070312 18.09375 48.492188 C 18.09375 48.929688 18.453125 49.273438 18.871094 49.273438 C 19.308594 49.273438 19.652344 48.914062 19.652344 48.492188 C 19.652344 48.070312 19.308594 47.714844 18.871094 47.714844 Z M 18.871094 47.714844 " fill-opacity="1" fill-rule="nonzero"/><path fill="#ffffff" d="M 13.539062 49.851562 C 12.976562 49.851562 12.539062 50.304688 12.539062 50.847656 C 12.539062 51.410156 12.992188 51.847656 13.539062 51.847656 C 14.097656 51.847656 14.535156 51.394531 14.535156 50.847656 C 14.550781 50.304688 14.097656 49.851562 13.539062 49.851562 Z M 13.539062 49.851562 " fill-opacity="1" fill-rule="nonzero"/><path fill="#ffffff" d="M 13.539062 52.96875 C 13.101562 52.96875 12.757812 53.328125 12.757812 53.75 C 12.757812 54.1875 13.117188 54.53125 13.539062 54.53125 C 13.976562 54.53125 14.316406 54.171875 14.316406 53.75 C 14.332031 53.3125 13.976562 52.96875 13.539062 52.96875 Z M 13.539062 52.96875 " fill-opacity="1" fill-rule="nonzero"/><path fill="#ffffff" d="M 8.21875 46.152344 C 7.65625 46.152344 7.21875 46.605469 7.21875 47.152344 C 7.21875 47.714844 7.671875 48.148438 8.21875 48.148438 C 8.765625 48.148438 9.21875 47.699219 9.21875 47.152344 C 9.234375 46.605469 8.78125 46.152344 8.21875 46.152344 Z M 8.21875 46.152344 " fill-opacity="1" fill-rule="nonzero"/><path fill="#ffffff" d="M 8.21875 49.273438 C 7.78125 49.273438 7.4375 49.632812 7.4375 50.054688 C 7.4375 50.488281 7.796875 50.832031 8.21875 50.832031 C 8.640625 50.832031 9 50.472656 9 50.054688 C 9.015625 49.617188 8.65625 49.273438 8.21875 49.273438 Z M 8.21875 49.273438 " fill-opacity="1" fill-rule="nonzero"/><g clip-path="url(#a4573b5a5d)"><path fill="#ffffff" d="M 2.898438 41.175781 C 2.335938 41.175781 1.902344 41.628906 1.902344 42.175781 C 1.902344 42.738281 2.351562 43.175781 2.898438 43.175781 C 3.445312 43.175781 3.898438 42.722656 3.898438 42.175781 C 3.898438 41.613281 3.460938 41.175781 2.898438 41.175781 Z M 2.898438 41.175781 " fill-opacity="1" fill-rule="nonzero"/></g><path fill="#ffffff" d="M 2.898438 44.28125 C 2.460938 44.28125 2.121094 44.640625 2.121094 45.0625 C 2.121094 45.5 2.476562 45.839844 2.898438 45.839844 C 3.320312 45.839844 3.679688 45.484375 3.679688 45.0625 C 3.679688 44.625 3.335938 44.28125 2.898438 44.28125 Z M 2.898438 44.28125 " fill-opacity="1" fill-rule="nonzero"/></svg>
